<mxfile host="app.diagrams.net" modified="2023-02-28T13:36:08.030Z" agent="5.0 (Windows NT 10.0; Win64; x64) AppleWebKit/537.36 (KHTML, like Gecko) Chrome/110.0.0.0 Safari/537.36" etag="hirJicsa9G_nZonTbUg1" version="20.8.21" type="github">
  <diagram name="Page-1" id="e56a1550-8fbb-45ad-956c-1786394a9013">
    <mxGraphModel dx="2893" dy="1038" grid="1" gridSize="10" guides="1" tooltips="1" connect="1" arrows="1" fold="1" page="1" pageScale="1" pageWidth="1100" pageHeight="850" background="none" math="0" shadow="0">
      <root>
        <mxCell id="0" />
        <mxCell id="1" parent="0" />
        <mxCell id="XJ-SBI3OwPLti13eH-zW-39" style="edgeStyle=orthogonalEdgeStyle;rounded=0;jumpStyle=arc;orthogonalLoop=1;jettySize=auto;html=1;shadow=0;strokeColor=default;fontColor=#000000;endArrow=none;endFill=0;" edge="1" parent="1" source="2e49270ec7c68f3f-80" target="OxLEWKywHOv-19JCzwFs-141">
          <mxGeometry relative="1" as="geometry" />
        </mxCell>
        <mxCell id="XJ-SBI3OwPLti13eH-zW-40" value="1,2" style="edgeLabel;html=1;align=center;verticalAlign=middle;resizable=0;points=[];fontColor=#000000;rounded=0;" vertex="1" connectable="0" parent="XJ-SBI3OwPLti13eH-zW-39">
          <mxGeometry x="-0.9441" y="-1" relative="1" as="geometry">
            <mxPoint x="-6" as="offset" />
          </mxGeometry>
        </mxCell>
        <mxCell id="2e49270ec7c68f3f-80" value="BÉNÉFICIER" style="swimlane;html=1;fontStyle=0;childLayout=stackLayout;horizontal=1;startSize=26;fillColor=#e0e0e0;horizontalStack=0;resizeParent=1;resizeLast=0;collapsible=1;marginBottom=0;swimlaneFillColor=#ffffff;align=center;rounded=0;shadow=0;comic=0;labelBackgroundColor=none;strokeWidth=1;fontFamily=Verdana;fontSize=14;" parent="1" vertex="1">
          <mxGeometry x="1080" y="468" width="160" height="212" as="geometry">
            <mxRectangle x="180" y="180" width="120" height="30" as="alternateBounds" />
          </mxGeometry>
        </mxCell>
        <mxCell id="2e49270ec7c68f3f-81" value="ID_BÉNÉFICIER" style="shape=partialRectangle;top=0;left=0;right=0;bottom=1;html=1;align=left;verticalAlign=middle;fillColor=none;spacingLeft=34;spacingRight=4;whiteSpace=wrap;overflow=hidden;rotatable=0;points=[[0,0.5],[1,0.5]];portConstraint=eastwest;dropTarget=0;fontStyle=5;rounded=0;" parent="2e49270ec7c68f3f-80" vertex="1">
          <mxGeometry y="26" width="160" height="30" as="geometry" />
        </mxCell>
        <mxCell id="2e49270ec7c68f3f-82" value="PK" style="shape=partialRectangle;top=0;left=0;bottom=0;html=1;fillColor=none;align=left;verticalAlign=middle;spacingLeft=4;spacingRight=4;whiteSpace=wrap;overflow=hidden;rotatable=0;points=[];portConstraint=eastwest;part=1;rounded=0;" parent="2e49270ec7c68f3f-81" vertex="1" connectable="0">
          <mxGeometry width="30" height="30" as="geometry" />
        </mxCell>
        <mxCell id="2e49270ec7c68f3f-83" value="nom" style="shape=partialRectangle;top=0;left=0;right=0;bottom=0;html=1;align=left;verticalAlign=top;fillColor=none;spacingLeft=34;spacingRight=4;whiteSpace=wrap;overflow=hidden;rotatable=0;points=[[0,0.5],[1,0.5]];portConstraint=eastwest;dropTarget=0;rounded=0;" parent="2e49270ec7c68f3f-80" vertex="1">
          <mxGeometry y="56" width="160" height="26" as="geometry" />
        </mxCell>
        <mxCell id="2e49270ec7c68f3f-84" value="" style="shape=partialRectangle;top=0;left=0;bottom=0;html=1;fillColor=none;align=left;verticalAlign=top;spacingLeft=4;spacingRight=4;whiteSpace=wrap;overflow=hidden;rotatable=0;points=[];portConstraint=eastwest;part=1;rounded=0;" parent="2e49270ec7c68f3f-83" vertex="1" connectable="0">
          <mxGeometry width="30" height="26" as="geometry" />
        </mxCell>
        <mxCell id="2e49270ec7c68f3f-85" value="prenom" style="shape=partialRectangle;top=0;left=0;right=0;bottom=0;html=1;align=left;verticalAlign=top;fillColor=none;spacingLeft=34;spacingRight=4;whiteSpace=wrap;overflow=hidden;rotatable=0;points=[[0,0.5],[1,0.5]];portConstraint=eastwest;dropTarget=0;rounded=0;" parent="2e49270ec7c68f3f-80" vertex="1">
          <mxGeometry y="82" width="160" height="26" as="geometry" />
        </mxCell>
        <mxCell id="2e49270ec7c68f3f-86" value="" style="shape=partialRectangle;top=0;left=0;bottom=0;html=1;fillColor=none;align=left;verticalAlign=top;spacingLeft=4;spacingRight=4;whiteSpace=wrap;overflow=hidden;rotatable=0;points=[];portConstraint=eastwest;part=1;rounded=0;" parent="2e49270ec7c68f3f-85" vertex="1" connectable="0">
          <mxGeometry width="30" height="26" as="geometry" />
        </mxCell>
        <mxCell id="5KgQhFO7GnKElYih4QEI-24" value="email" style="shape=partialRectangle;top=0;left=0;right=0;bottom=0;html=1;align=left;verticalAlign=top;fillColor=none;spacingLeft=34;spacingRight=4;whiteSpace=wrap;overflow=hidden;rotatable=0;points=[[0,0.5],[1,0.5]];portConstraint=eastwest;dropTarget=0;rounded=0;" parent="2e49270ec7c68f3f-80" vertex="1">
          <mxGeometry y="108" width="160" height="26" as="geometry" />
        </mxCell>
        <mxCell id="5KgQhFO7GnKElYih4QEI-25" value="" style="shape=partialRectangle;top=0;left=0;bottom=0;html=1;fillColor=none;align=left;verticalAlign=top;spacingLeft=4;spacingRight=4;whiteSpace=wrap;overflow=hidden;rotatable=0;points=[];portConstraint=eastwest;part=1;rounded=0;" parent="5KgQhFO7GnKElYih4QEI-24" vertex="1" connectable="0">
          <mxGeometry width="30" height="26" as="geometry" />
        </mxCell>
        <mxCell id="5KgQhFO7GnKElYih4QEI-26" value="tele" style="shape=partialRectangle;top=0;left=0;right=0;bottom=0;html=1;align=left;verticalAlign=top;fillColor=none;spacingLeft=34;spacingRight=4;whiteSpace=wrap;overflow=hidden;rotatable=0;points=[[0,0.5],[1,0.5]];portConstraint=eastwest;dropTarget=0;rounded=0;" parent="2e49270ec7c68f3f-80" vertex="1">
          <mxGeometry y="134" width="160" height="26" as="geometry" />
        </mxCell>
        <mxCell id="5KgQhFO7GnKElYih4QEI-27" value="" style="shape=partialRectangle;top=0;left=0;bottom=0;html=1;fillColor=none;align=left;verticalAlign=top;spacingLeft=4;spacingRight=4;whiteSpace=wrap;overflow=hidden;rotatable=0;points=[];portConstraint=eastwest;part=1;rounded=0;" parent="5KgQhFO7GnKElYih4QEI-26" vertex="1" connectable="0">
          <mxGeometry width="30" height="26" as="geometry" />
        </mxCell>
        <mxCell id="2e49270ec7c68f3f-87" value="matricule" style="shape=partialRectangle;top=0;left=0;right=0;bottom=0;html=1;align=left;verticalAlign=top;fillColor=none;spacingLeft=34;spacingRight=4;whiteSpace=wrap;overflow=hidden;rotatable=0;points=[[0,0.5],[1,0.5]];portConstraint=eastwest;dropTarget=0;rounded=0;" parent="2e49270ec7c68f3f-80" vertex="1">
          <mxGeometry y="160" width="160" height="26" as="geometry" />
        </mxCell>
        <mxCell id="2e49270ec7c68f3f-88" value="" style="shape=partialRectangle;top=0;left=0;bottom=0;html=1;fillColor=none;align=left;verticalAlign=top;spacingLeft=4;spacingRight=4;whiteSpace=wrap;overflow=hidden;rotatable=0;points=[];portConstraint=eastwest;part=1;rounded=0;" parent="2e49270ec7c68f3f-87" vertex="1" connectable="0">
          <mxGeometry width="30" height="26" as="geometry" />
        </mxCell>
        <mxCell id="OxLEWKywHOv-19JCzwFs-191" value="fonction" style="shape=partialRectangle;top=0;left=0;right=0;bottom=0;html=1;align=left;verticalAlign=top;fillColor=none;spacingLeft=34;spacingRight=4;whiteSpace=wrap;overflow=hidden;rotatable=0;points=[[0,0.5],[1,0.5]];portConstraint=eastwest;dropTarget=0;rounded=0;" parent="2e49270ec7c68f3f-80" vertex="1">
          <mxGeometry y="186" width="160" height="26" as="geometry" />
        </mxCell>
        <mxCell id="OxLEWKywHOv-19JCzwFs-192" value="" style="shape=partialRectangle;top=0;left=0;bottom=0;html=1;fillColor=none;align=left;verticalAlign=top;spacingLeft=4;spacingRight=4;whiteSpace=wrap;overflow=hidden;rotatable=0;points=[];portConstraint=eastwest;part=1;rounded=0;" parent="OxLEWKywHOv-19JCzwFs-191" vertex="1" connectable="0">
          <mxGeometry width="30" height="26" as="geometry" />
        </mxCell>
        <mxCell id="OxLEWKywHOv-19JCzwFs-136" style="edgeStyle=elbowEdgeStyle;rounded=0;orthogonalLoop=1;jettySize=auto;html=1;endArrow=none;endFill=0;" parent="1" source="5KgQhFO7GnKElYih4QEI-52" target="OxLEWKywHOv-19JCzwFs-204" edge="1">
          <mxGeometry relative="1" as="geometry">
            <mxPoint x="1275.1739130434785" y="1820" as="targetPoint" />
          </mxGeometry>
        </mxCell>
        <mxCell id="OxLEWKywHOv-19JCzwFs-186" value="1,n" style="edgeLabel;html=1;align=center;verticalAlign=middle;resizable=0;points=[];rounded=0;" parent="OxLEWKywHOv-19JCzwFs-136" vertex="1" connectable="0">
          <mxGeometry x="-0.777" relative="1" as="geometry">
            <mxPoint as="offset" />
          </mxGeometry>
        </mxCell>
        <mxCell id="XJ-SBI3OwPLti13eH-zW-48" style="edgeStyle=orthogonalEdgeStyle;rounded=0;jumpStyle=arc;orthogonalLoop=1;jettySize=auto;html=1;entryX=0.5;entryY=0;entryDx=0;entryDy=0;shadow=0;strokeColor=default;fontColor=#000000;endArrow=none;endFill=0;" edge="1" parent="1" source="5KgQhFO7GnKElYih4QEI-52" target="XJ-SBI3OwPLti13eH-zW-45">
          <mxGeometry relative="1" as="geometry" />
        </mxCell>
        <mxCell id="XJ-SBI3OwPLti13eH-zW-51" value="1,1" style="edgeLabel;html=1;align=center;verticalAlign=middle;resizable=0;points=[];fontColor=#000000;rounded=0;" vertex="1" connectable="0" parent="XJ-SBI3OwPLti13eH-zW-48">
          <mxGeometry x="-0.7143" y="1" relative="1" as="geometry">
            <mxPoint as="offset" />
          </mxGeometry>
        </mxCell>
        <mxCell id="5KgQhFO7GnKElYih4QEI-52" value="COMPTE_GESTIONNAIRE" style="swimlane;html=1;fontStyle=0;childLayout=stackLayout;horizontal=1;startSize=26;fillColor=#e0e0e0;horizontalStack=0;resizeParent=1;resizeLast=0;collapsible=1;marginBottom=0;swimlaneFillColor=#ffffff;align=center;rounded=0;shadow=0;comic=0;labelBackgroundColor=none;strokeWidth=1;fontFamily=Verdana;fontSize=14;" parent="1" vertex="1">
          <mxGeometry x="1210" y="1814" width="190" height="82" as="geometry">
            <mxRectangle x="1310" y="1060" width="150" height="30" as="alternateBounds" />
          </mxGeometry>
        </mxCell>
        <mxCell id="5KgQhFO7GnKElYih4QEI-53" value="ID_GESTIONNAIRE" style="shape=partialRectangle;top=0;left=0;right=0;bottom=1;html=1;align=left;verticalAlign=middle;fillColor=none;spacingLeft=34;spacingRight=4;whiteSpace=wrap;overflow=hidden;rotatable=0;points=[[0,0.5],[1,0.5]];portConstraint=eastwest;dropTarget=0;fontStyle=5;rounded=0;" parent="5KgQhFO7GnKElYih4QEI-52" vertex="1">
          <mxGeometry y="26" width="190" height="30" as="geometry" />
        </mxCell>
        <mxCell id="5KgQhFO7GnKElYih4QEI-54" value="PK" style="shape=partialRectangle;top=0;left=0;bottom=0;html=1;fillColor=none;align=left;verticalAlign=middle;spacingLeft=4;spacingRight=4;whiteSpace=wrap;overflow=hidden;rotatable=0;points=[];portConstraint=eastwest;part=1;rounded=0;" parent="5KgQhFO7GnKElYih4QEI-53" vertex="1" connectable="0">
          <mxGeometry width="30" height="30" as="geometry" />
        </mxCell>
        <mxCell id="OxLEWKywHOv-19JCzwFs-235" value="SON" style="shape=partialRectangle;top=0;left=0;right=0;bottom=0;html=1;align=left;verticalAlign=top;fillColor=none;spacingLeft=34;spacingRight=4;whiteSpace=wrap;overflow=hidden;rotatable=0;points=[[0,0.5],[1,0.5]];portConstraint=eastwest;dropTarget=0;rounded=0;" parent="5KgQhFO7GnKElYih4QEI-52" vertex="1">
          <mxGeometry y="56" width="190" height="26" as="geometry" />
        </mxCell>
        <mxCell id="OxLEWKywHOv-19JCzwFs-236" value="" style="shape=partialRectangle;top=0;left=0;bottom=0;html=1;fillColor=none;align=left;verticalAlign=top;spacingLeft=4;spacingRight=4;whiteSpace=wrap;overflow=hidden;rotatable=0;points=[];portConstraint=eastwest;part=1;rounded=0;" parent="OxLEWKywHOv-19JCzwFs-235" vertex="1" connectable="0">
          <mxGeometry width="30" height="26" as="geometry" />
        </mxCell>
        <mxCell id="OxLEWKywHOv-19JCzwFs-50" style="edgeStyle=elbowEdgeStyle;rounded=0;orthogonalLoop=1;jettySize=auto;html=1;endArrow=none;endFill=0;" parent="1" source="5KgQhFO7GnKElYih4QEI-75" target="OxLEWKywHOv-19JCzwFs-49" edge="1">
          <mxGeometry relative="1" as="geometry" />
        </mxCell>
        <mxCell id="OxLEWKywHOv-19JCzwFs-164" value="1,1" style="edgeLabel;html=1;align=center;verticalAlign=middle;resizable=0;points=[];rounded=0;" parent="OxLEWKywHOv-19JCzwFs-50" vertex="1" connectable="0">
          <mxGeometry x="-0.7246" y="2" relative="1" as="geometry">
            <mxPoint as="offset" />
          </mxGeometry>
        </mxCell>
        <mxCell id="5KgQhFO7GnKElYih4QEI-75" value="EMPLOYEUR" style="swimlane;html=1;fontStyle=0;childLayout=stackLayout;horizontal=1;startSize=26;fillColor=#e0e0e0;horizontalStack=0;resizeParent=1;resizeLast=0;collapsible=1;marginBottom=0;swimlaneFillColor=#ffffff;align=center;rounded=0;shadow=0;comic=0;labelBackgroundColor=none;strokeWidth=1;fontFamily=Verdana;fontSize=14;" parent="1" vertex="1">
          <mxGeometry x="1080" y="860" width="160" height="110" as="geometry">
            <mxRectangle x="70" y="260" width="130" height="30" as="alternateBounds" />
          </mxGeometry>
        </mxCell>
        <mxCell id="5KgQhFO7GnKElYih4QEI-76" value="ID_EMPLOYEUR" style="shape=partialRectangle;top=0;left=0;right=0;bottom=1;html=1;align=left;verticalAlign=middle;fillColor=none;spacingLeft=34;spacingRight=4;whiteSpace=wrap;overflow=hidden;rotatable=0;points=[[0,0.5],[1,0.5]];portConstraint=eastwest;dropTarget=0;fontStyle=5;rounded=0;" parent="5KgQhFO7GnKElYih4QEI-75" vertex="1">
          <mxGeometry y="26" width="160" height="30" as="geometry" />
        </mxCell>
        <mxCell id="5KgQhFO7GnKElYih4QEI-77" value="PK" style="shape=partialRectangle;top=0;left=0;bottom=0;html=1;fillColor=none;align=left;verticalAlign=middle;spacingLeft=4;spacingRight=4;whiteSpace=wrap;overflow=hidden;rotatable=0;points=[];portConstraint=eastwest;part=1;rounded=0;" parent="5KgQhFO7GnKElYih4QEI-76" vertex="1" connectable="0">
          <mxGeometry width="30" height="30" as="geometry" />
        </mxCell>
        <mxCell id="5KgQhFO7GnKElYih4QEI-80" value="libelle" style="shape=partialRectangle;top=0;left=0;right=0;bottom=0;html=1;align=left;verticalAlign=top;fillColor=none;spacingLeft=34;spacingRight=4;whiteSpace=wrap;overflow=hidden;rotatable=0;points=[[0,0.5],[1,0.5]];portConstraint=eastwest;dropTarget=0;rounded=0;" parent="5KgQhFO7GnKElYih4QEI-75" vertex="1">
          <mxGeometry y="56" width="160" height="26" as="geometry" />
        </mxCell>
        <mxCell id="5KgQhFO7GnKElYih4QEI-81" value="" style="shape=partialRectangle;top=0;left=0;bottom=0;html=1;fillColor=none;align=left;verticalAlign=top;spacingLeft=4;spacingRight=4;whiteSpace=wrap;overflow=hidden;rotatable=0;points=[];portConstraint=eastwest;part=1;rounded=0;" parent="5KgQhFO7GnKElYih4QEI-80" vertex="1" connectable="0">
          <mxGeometry width="30" height="26" as="geometry" />
        </mxCell>
        <mxCell id="OxLEWKywHOv-19JCzwFs-199" value="code" style="shape=partialRectangle;top=0;left=0;right=0;bottom=0;html=1;align=left;verticalAlign=top;fillColor=none;spacingLeft=34;spacingRight=4;whiteSpace=wrap;overflow=hidden;rotatable=0;points=[[0,0.5],[1,0.5]];portConstraint=eastwest;dropTarget=0;rounded=0;" parent="5KgQhFO7GnKElYih4QEI-75" vertex="1">
          <mxGeometry y="82" width="160" height="26" as="geometry" />
        </mxCell>
        <mxCell id="OxLEWKywHOv-19JCzwFs-200" value="" style="shape=partialRectangle;top=0;left=0;bottom=0;html=1;fillColor=none;align=left;verticalAlign=top;spacingLeft=4;spacingRight=4;whiteSpace=wrap;overflow=hidden;rotatable=0;points=[];portConstraint=eastwest;part=1;rounded=0;" parent="OxLEWKywHOv-19JCzwFs-199" vertex="1" connectable="0">
          <mxGeometry width="30" height="26" as="geometry" />
        </mxCell>
        <mxCell id="5KgQhFO7GnKElYih4QEI-82" value="CONVENTION" style="swimlane;html=1;fontStyle=0;childLayout=stackLayout;horizontal=1;startSize=26;fillColor=#e0e0e0;horizontalStack=0;resizeParent=1;resizeLast=0;collapsible=1;marginBottom=0;swimlaneFillColor=#ffffff;align=center;rounded=0;shadow=0;comic=0;labelBackgroundColor=none;strokeWidth=1;fontFamily=Verdana;fontSize=14;" parent="1" vertex="1">
          <mxGeometry x="750" y="1030" width="160" height="110" as="geometry">
            <mxRectangle x="1020" y="1100" width="140" height="30" as="alternateBounds" />
          </mxGeometry>
        </mxCell>
        <mxCell id="5KgQhFO7GnKElYih4QEI-83" value="ID_CONVENTION" style="shape=partialRectangle;top=0;left=0;right=0;bottom=1;html=1;align=left;verticalAlign=middle;fillColor=none;spacingLeft=34;spacingRight=4;whiteSpace=wrap;overflow=hidden;rotatable=0;points=[[0,0.5],[1,0.5]];portConstraint=eastwest;dropTarget=0;fontStyle=5;rounded=0;" parent="5KgQhFO7GnKElYih4QEI-82" vertex="1">
          <mxGeometry y="26" width="160" height="30" as="geometry" />
        </mxCell>
        <mxCell id="5KgQhFO7GnKElYih4QEI-84" value="PK" style="shape=partialRectangle;top=0;left=0;bottom=0;html=1;fillColor=none;align=left;verticalAlign=middle;spacingLeft=4;spacingRight=4;whiteSpace=wrap;overflow=hidden;rotatable=0;points=[];portConstraint=eastwest;part=1;rounded=0;" parent="5KgQhFO7GnKElYih4QEI-83" vertex="1" connectable="0">
          <mxGeometry width="30" height="30" as="geometry" />
        </mxCell>
        <mxCell id="5KgQhFO7GnKElYih4QEI-87" value="date_debut" style="shape=partialRectangle;top=0;left=0;right=0;bottom=0;html=1;align=left;verticalAlign=top;fillColor=none;spacingLeft=34;spacingRight=4;whiteSpace=wrap;overflow=hidden;rotatable=0;points=[[0,0.5],[1,0.5]];portConstraint=eastwest;dropTarget=0;rounded=0;" parent="5KgQhFO7GnKElYih4QEI-82" vertex="1">
          <mxGeometry y="56" width="160" height="26" as="geometry" />
        </mxCell>
        <mxCell id="5KgQhFO7GnKElYih4QEI-88" value="" style="shape=partialRectangle;top=0;left=0;bottom=0;html=1;fillColor=none;align=left;verticalAlign=top;spacingLeft=4;spacingRight=4;whiteSpace=wrap;overflow=hidden;rotatable=0;points=[];portConstraint=eastwest;part=1;rounded=0;" parent="5KgQhFO7GnKElYih4QEI-87" vertex="1" connectable="0">
          <mxGeometry width="30" height="26" as="geometry" />
        </mxCell>
        <mxCell id="OxLEWKywHOv-19JCzwFs-201" value="date_fin" style="shape=partialRectangle;top=0;left=0;right=0;bottom=0;html=1;align=left;verticalAlign=top;fillColor=none;spacingLeft=34;spacingRight=4;whiteSpace=wrap;overflow=hidden;rotatable=0;points=[[0,0.5],[1,0.5]];portConstraint=eastwest;dropTarget=0;rounded=0;" parent="5KgQhFO7GnKElYih4QEI-82" vertex="1">
          <mxGeometry y="82" width="160" height="28" as="geometry" />
        </mxCell>
        <mxCell id="OxLEWKywHOv-19JCzwFs-202" value="" style="shape=partialRectangle;top=0;left=0;bottom=0;html=1;fillColor=none;align=left;verticalAlign=top;spacingLeft=4;spacingRight=4;whiteSpace=wrap;overflow=hidden;rotatable=0;points=[];portConstraint=eastwest;part=1;rounded=0;" parent="OxLEWKywHOv-19JCzwFs-201" vertex="1" connectable="0">
          <mxGeometry width="30" height="28" as="geometry" />
        </mxCell>
        <mxCell id="OxLEWKywHOv-19JCzwFs-90" style="edgeStyle=elbowEdgeStyle;rounded=0;orthogonalLoop=1;jettySize=auto;html=1;endArrow=none;endFill=0;entryX=1;entryY=0.5;entryDx=0;entryDy=0;" parent="1" source="5KgQhFO7GnKElYih4QEI-89" target="OxLEWKywHOv-19JCzwFs-89" edge="1">
          <mxGeometry relative="1" as="geometry">
            <mxPoint x="1190" y="1169" as="targetPoint" />
          </mxGeometry>
        </mxCell>
        <mxCell id="OxLEWKywHOv-19JCzwFs-175" value="1,1" style="edgeLabel;html=1;align=center;verticalAlign=middle;resizable=0;points=[];rounded=0;" parent="OxLEWKywHOv-19JCzwFs-90" vertex="1" connectable="0">
          <mxGeometry x="-0.6338" y="-5" relative="1" as="geometry">
            <mxPoint as="offset" />
          </mxGeometry>
        </mxCell>
        <mxCell id="01VOMUPUEz3-RHZkKi3b-23" style="edgeStyle=orthogonalEdgeStyle;rounded=0;orthogonalLoop=1;jettySize=auto;html=1;fontColor=#000000;endArrow=none;endFill=0;exitX=1;exitY=0.5;exitDx=0;exitDy=0;" parent="1" source="OxLEWKywHOv-19JCzwFs-207" target="01VOMUPUEz3-RHZkKi3b-22" edge="1">
          <mxGeometry relative="1" as="geometry" />
        </mxCell>
        <mxCell id="01VOMUPUEz3-RHZkKi3b-27" value="1,1" style="edgeLabel;html=1;align=center;verticalAlign=middle;resizable=0;points=[];fontColor=#000000;rounded=0;" parent="01VOMUPUEz3-RHZkKi3b-23" vertex="1" connectable="0">
          <mxGeometry x="-0.9103" relative="1" as="geometry">
            <mxPoint as="offset" />
          </mxGeometry>
        </mxCell>
        <mxCell id="5KgQhFO7GnKElYih4QEI-89" value="STRUCTURE_MÉDICALE" style="swimlane;html=1;fontStyle=0;childLayout=stackLayout;horizontal=1;startSize=26;fillColor=#e0e0e0;horizontalStack=0;resizeParent=1;resizeLast=0;collapsible=1;marginBottom=0;swimlaneFillColor=#ffffff;align=center;rounded=0;shadow=0;comic=0;labelBackgroundColor=none;strokeWidth=1;fontFamily=Verdana;fontSize=14;" parent="1" vertex="1">
          <mxGeometry x="1330" y="1005" width="210" height="161" as="geometry">
            <mxRectangle x="1180" y="1310" width="150" height="30" as="alternateBounds" />
          </mxGeometry>
        </mxCell>
        <mxCell id="5KgQhFO7GnKElYih4QEI-90" value="ID_STRUCTURE_MÉDICALE" style="shape=partialRectangle;top=0;left=0;right=0;bottom=1;html=1;align=left;verticalAlign=middle;fillColor=none;spacingLeft=34;spacingRight=4;whiteSpace=wrap;overflow=hidden;rotatable=0;points=[[0,0.5],[1,0.5]];portConstraint=eastwest;dropTarget=0;fontStyle=5;rounded=0;" parent="5KgQhFO7GnKElYih4QEI-89" vertex="1">
          <mxGeometry y="26" width="210" height="30" as="geometry" />
        </mxCell>
        <mxCell id="5KgQhFO7GnKElYih4QEI-91" value="PK" style="shape=partialRectangle;top=0;left=0;bottom=0;html=1;fillColor=none;align=left;verticalAlign=middle;spacingLeft=4;spacingRight=4;whiteSpace=wrap;overflow=hidden;rotatable=0;points=[];portConstraint=eastwest;part=1;rounded=0;" parent="5KgQhFO7GnKElYih4QEI-90" vertex="1" connectable="0">
          <mxGeometry width="30" height="30" as="geometry" />
        </mxCell>
        <mxCell id="5KgQhFO7GnKElYih4QEI-94" value="libelle" style="shape=partialRectangle;top=0;left=0;right=0;bottom=0;html=1;align=left;verticalAlign=top;fillColor=none;spacingLeft=34;spacingRight=4;whiteSpace=wrap;overflow=hidden;rotatable=0;points=[[0,0.5],[1,0.5]];portConstraint=eastwest;dropTarget=0;rounded=0;" parent="5KgQhFO7GnKElYih4QEI-89" vertex="1">
          <mxGeometry y="56" width="210" height="26" as="geometry" />
        </mxCell>
        <mxCell id="5KgQhFO7GnKElYih4QEI-95" value="" style="shape=partialRectangle;top=0;left=0;bottom=0;html=1;fillColor=none;align=left;verticalAlign=top;spacingLeft=4;spacingRight=4;whiteSpace=wrap;overflow=hidden;rotatable=0;points=[];portConstraint=eastwest;part=1;rounded=0;" parent="5KgQhFO7GnKElYih4QEI-94" vertex="1" connectable="0">
          <mxGeometry width="30" height="26" as="geometry" />
        </mxCell>
        <mxCell id="OxLEWKywHOv-19JCzwFs-207" value="email" style="shape=partialRectangle;top=0;left=0;right=0;bottom=0;html=1;align=left;verticalAlign=top;fillColor=none;spacingLeft=34;spacingRight=4;whiteSpace=wrap;overflow=hidden;rotatable=0;points=[[0,0.5],[1,0.5]];portConstraint=eastwest;dropTarget=0;rounded=0;" parent="5KgQhFO7GnKElYih4QEI-89" vertex="1">
          <mxGeometry y="82" width="210" height="26" as="geometry" />
        </mxCell>
        <mxCell id="OxLEWKywHOv-19JCzwFs-208" value="" style="shape=partialRectangle;top=0;left=0;bottom=0;html=1;fillColor=none;align=left;verticalAlign=top;spacingLeft=4;spacingRight=4;whiteSpace=wrap;overflow=hidden;rotatable=0;points=[];portConstraint=eastwest;part=1;rounded=0;" parent="OxLEWKywHOv-19JCzwFs-207" vertex="1" connectable="0">
          <mxGeometry width="30" height="26" as="geometry" />
        </mxCell>
        <mxCell id="OxLEWKywHOv-19JCzwFs-209" value="adresse" style="shape=partialRectangle;top=0;left=0;right=0;bottom=0;html=1;align=left;verticalAlign=top;fillColor=none;spacingLeft=34;spacingRight=4;whiteSpace=wrap;overflow=hidden;rotatable=0;points=[[0,0.5],[1,0.5]];portConstraint=eastwest;dropTarget=0;rounded=0;" parent="5KgQhFO7GnKElYih4QEI-89" vertex="1">
          <mxGeometry y="108" width="210" height="26" as="geometry" />
        </mxCell>
        <mxCell id="OxLEWKywHOv-19JCzwFs-210" value="" style="shape=partialRectangle;top=0;left=0;bottom=0;html=1;fillColor=none;align=left;verticalAlign=top;spacingLeft=4;spacingRight=4;whiteSpace=wrap;overflow=hidden;rotatable=0;points=[];portConstraint=eastwest;part=1;rounded=0;" parent="OxLEWKywHOv-19JCzwFs-209" vertex="1" connectable="0">
          <mxGeometry width="30" height="26" as="geometry" />
        </mxCell>
        <mxCell id="OxLEWKywHOv-19JCzwFs-211" value="tele" style="shape=partialRectangle;top=0;left=0;right=0;bottom=0;html=1;align=left;verticalAlign=top;fillColor=none;spacingLeft=34;spacingRight=4;whiteSpace=wrap;overflow=hidden;rotatable=0;points=[[0,0.5],[1,0.5]];portConstraint=eastwest;dropTarget=0;rounded=0;" parent="5KgQhFO7GnKElYih4QEI-89" vertex="1">
          <mxGeometry y="134" width="210" height="26" as="geometry" />
        </mxCell>
        <mxCell id="OxLEWKywHOv-19JCzwFs-212" value="" style="shape=partialRectangle;top=0;left=0;bottom=0;html=1;fillColor=none;align=left;verticalAlign=top;spacingLeft=4;spacingRight=4;whiteSpace=wrap;overflow=hidden;rotatable=0;points=[];portConstraint=eastwest;part=1;rounded=0;" parent="OxLEWKywHOv-19JCzwFs-211" vertex="1" connectable="0">
          <mxGeometry width="30" height="26" as="geometry" />
        </mxCell>
        <mxCell id="5KgQhFO7GnKElYih4QEI-105" value="REGION" style="swimlane;html=1;fontStyle=0;childLayout=stackLayout;horizontal=1;startSize=26;fillColor=#e0e0e0;horizontalStack=0;resizeParent=1;resizeLast=0;collapsible=1;marginBottom=0;swimlaneFillColor=#ffffff;align=center;rounded=0;shadow=0;comic=0;labelBackgroundColor=none;strokeWidth=1;fontFamily=Verdana;fontSize=14;" parent="1" vertex="1">
          <mxGeometry x="940" y="1539" width="160" height="114" as="geometry">
            <mxRectangle x="980" y="1480" width="100" height="30" as="alternateBounds" />
          </mxGeometry>
        </mxCell>
        <mxCell id="5KgQhFO7GnKElYih4QEI-106" value="ID_REGION" style="shape=partialRectangle;top=0;left=0;right=0;bottom=1;html=1;align=left;verticalAlign=middle;fillColor=none;spacingLeft=34;spacingRight=4;whiteSpace=wrap;overflow=hidden;rotatable=0;points=[[0,0.5],[1,0.5]];portConstraint=eastwest;dropTarget=0;fontStyle=5;rounded=0;" parent="5KgQhFO7GnKElYih4QEI-105" vertex="1">
          <mxGeometry y="26" width="160" height="30" as="geometry" />
        </mxCell>
        <mxCell id="5KgQhFO7GnKElYih4QEI-107" value="PK" style="shape=partialRectangle;top=0;left=0;bottom=0;html=1;fillColor=none;align=left;verticalAlign=middle;spacingLeft=4;spacingRight=4;whiteSpace=wrap;overflow=hidden;rotatable=0;points=[];portConstraint=eastwest;part=1;rounded=0;" parent="5KgQhFO7GnKElYih4QEI-106" vertex="1" connectable="0">
          <mxGeometry width="30" height="30" as="geometry" />
        </mxCell>
        <mxCell id="5KgQhFO7GnKElYih4QEI-110" value="libelle" style="shape=partialRectangle;top=0;left=0;right=0;bottom=0;html=1;align=left;verticalAlign=top;fillColor=none;spacingLeft=34;spacingRight=4;whiteSpace=wrap;overflow=hidden;rotatable=0;points=[[0,0.5],[1,0.5]];portConstraint=eastwest;dropTarget=0;rounded=0;" parent="5KgQhFO7GnKElYih4QEI-105" vertex="1">
          <mxGeometry y="56" width="160" height="26" as="geometry" />
        </mxCell>
        <mxCell id="5KgQhFO7GnKElYih4QEI-111" value="" style="shape=partialRectangle;top=0;left=0;bottom=0;html=1;fillColor=none;align=left;verticalAlign=top;spacingLeft=4;spacingRight=4;whiteSpace=wrap;overflow=hidden;rotatable=0;points=[];portConstraint=eastwest;part=1;rounded=0;" parent="5KgQhFO7GnKElYih4QEI-110" vertex="1" connectable="0">
          <mxGeometry width="30" height="26" as="geometry" />
        </mxCell>
        <mxCell id="OxLEWKywHOv-19JCzwFs-251" value="code" style="shape=partialRectangle;top=0;left=0;right=0;bottom=0;html=1;align=left;verticalAlign=top;fillColor=none;spacingLeft=34;spacingRight=4;whiteSpace=wrap;overflow=hidden;rotatable=0;points=[[0,0.5],[1,0.5]];portConstraint=eastwest;dropTarget=0;rounded=0;" parent="5KgQhFO7GnKElYih4QEI-105" vertex="1">
          <mxGeometry y="82" width="160" height="26" as="geometry" />
        </mxCell>
        <mxCell id="OxLEWKywHOv-19JCzwFs-252" value="" style="shape=partialRectangle;top=0;left=0;bottom=0;html=1;fillColor=none;align=left;verticalAlign=top;spacingLeft=4;spacingRight=4;whiteSpace=wrap;overflow=hidden;rotatable=0;points=[];portConstraint=eastwest;part=1;rounded=0;" parent="OxLEWKywHOv-19JCzwFs-251" vertex="1" connectable="0">
          <mxGeometry width="30" height="26" as="geometry" />
        </mxCell>
        <mxCell id="OxLEWKywHOv-19JCzwFs-48" value="" style="group;fontStyle=1;rounded=0;" parent="1" vertex="1" connectable="0">
          <mxGeometry x="1080" y="740" width="160" height="60" as="geometry" />
        </mxCell>
        <mxCell id="OxLEWKywHOv-19JCzwFs-49" value="travail à " style="swimlane;fontStyle=1;align=center;verticalAlign=middle;childLayout=stackLayout;horizontal=1;startSize=30;horizontalStack=0;resizeParent=0;resizeLast=1;container=0;collapsible=0;rounded=0;arcSize=30;swimlaneFillColor=#FFFFFF;dropTarget=0;fillColor=#CCCCCC;fontColor=#000000;" parent="OxLEWKywHOv-19JCzwFs-48" vertex="1">
          <mxGeometry width="160" height="60" as="geometry" />
        </mxCell>
        <mxCell id="OxLEWKywHOv-19JCzwFs-67" style="edgeStyle=elbowEdgeStyle;rounded=0;orthogonalLoop=1;jettySize=auto;html=1;entryX=0.5;entryY=1;entryDx=0;entryDy=0;endArrow=none;endFill=0;" parent="1" source="OxLEWKywHOv-19JCzwFs-52" target="OxLEWKywHOv-19JCzwFs-66" edge="1">
          <mxGeometry relative="1" as="geometry" />
        </mxCell>
        <mxCell id="OxLEWKywHOv-19JCzwFs-172" value="0.n" style="edgeLabel;html=1;align=center;verticalAlign=middle;resizable=0;points=[];rounded=0;" parent="OxLEWKywHOv-19JCzwFs-67" vertex="1" connectable="0">
          <mxGeometry x="-0.4709" y="1" relative="1" as="geometry">
            <mxPoint x="1" y="11" as="offset" />
          </mxGeometry>
        </mxCell>
        <mxCell id="OxLEWKywHOv-19JCzwFs-52" value="PRES_CATIGORIE" style="swimlane;html=1;fontStyle=0;childLayout=stackLayout;horizontal=1;startSize=26;fillColor=#e0e0e0;horizontalStack=0;resizeParent=1;resizeLast=0;collapsible=1;marginBottom=0;swimlaneFillColor=#ffffff;align=center;rounded=0;shadow=0;comic=0;labelBackgroundColor=none;strokeWidth=1;fontFamily=Verdana;fontSize=14;" parent="1" vertex="1">
          <mxGeometry x="730" y="719" width="180" height="81" as="geometry">
            <mxRectangle x="400" y="70" width="120" height="30" as="alternateBounds" />
          </mxGeometry>
        </mxCell>
        <mxCell id="OxLEWKywHOv-19JCzwFs-53" value="ID_PRES_CATIGORIE" style="shape=partialRectangle;top=0;left=0;right=0;bottom=1;html=1;align=left;verticalAlign=middle;fillColor=none;spacingLeft=34;spacingRight=4;whiteSpace=wrap;overflow=hidden;rotatable=0;points=[[0,0.5],[1,0.5]];portConstraint=eastwest;dropTarget=0;fontStyle=5;rounded=0;" parent="OxLEWKywHOv-19JCzwFs-52" vertex="1">
          <mxGeometry y="26" width="180" height="30" as="geometry" />
        </mxCell>
        <mxCell id="OxLEWKywHOv-19JCzwFs-54" value="PK" style="shape=partialRectangle;top=0;left=0;bottom=0;html=1;fillColor=none;align=left;verticalAlign=middle;spacingLeft=4;spacingRight=4;whiteSpace=wrap;overflow=hidden;rotatable=0;points=[];portConstraint=eastwest;part=1;rounded=0;" parent="OxLEWKywHOv-19JCzwFs-53" vertex="1" connectable="0">
          <mxGeometry width="30" height="30" as="geometry" />
        </mxCell>
        <mxCell id="OxLEWKywHOv-19JCzwFs-55" value="libelle" style="shape=partialRectangle;top=0;left=0;right=0;bottom=0;html=1;align=left;verticalAlign=top;fillColor=none;spacingLeft=34;spacingRight=4;whiteSpace=wrap;overflow=hidden;rotatable=0;points=[[0,0.5],[1,0.5]];portConstraint=eastwest;dropTarget=0;rounded=0;" parent="OxLEWKywHOv-19JCzwFs-52" vertex="1">
          <mxGeometry y="56" width="180" height="24" as="geometry" />
        </mxCell>
        <mxCell id="OxLEWKywHOv-19JCzwFs-56" value="" style="shape=partialRectangle;top=0;left=0;bottom=0;html=1;fillColor=none;align=left;verticalAlign=top;spacingLeft=4;spacingRight=4;whiteSpace=wrap;overflow=hidden;rotatable=0;points=[];portConstraint=eastwest;part=1;rounded=0;" parent="OxLEWKywHOv-19JCzwFs-55" vertex="1" connectable="0">
          <mxGeometry width="30" height="24" as="geometry" />
        </mxCell>
        <mxCell id="OxLEWKywHOv-19JCzwFs-65" value="" style="group;fontStyle=1;rounded=0;" parent="1" vertex="1" connectable="0">
          <mxGeometry x="750" y="545" width="160" height="60" as="geometry" />
        </mxCell>
        <mxCell id="OxLEWKywHOv-19JCzwFs-66" value="a droit à" style="swimlane;fontStyle=1;align=center;verticalAlign=middle;childLayout=stackLayout;horizontal=1;startSize=30;horizontalStack=0;resizeParent=0;resizeLast=1;container=0;collapsible=0;rounded=0;arcSize=30;swimlaneFillColor=#FFFFFF;dropTarget=0;fillColor=#CCCCCC;fontColor=#000000;" parent="OxLEWKywHOv-19JCzwFs-65" vertex="1">
          <mxGeometry width="160" height="60" as="geometry" />
        </mxCell>
        <mxCell id="OxLEWKywHOv-19JCzwFs-68" style="edgeStyle=elbowEdgeStyle;rounded=0;orthogonalLoop=1;jettySize=auto;html=1;endArrow=none;endFill=0;" parent="1" source="OxLEWKywHOv-19JCzwFs-66" target="2e49270ec7c68f3f-80" edge="1">
          <mxGeometry relative="1" as="geometry">
            <mxPoint x="830" y="422" as="targetPoint" />
          </mxGeometry>
        </mxCell>
        <mxCell id="OxLEWKywHOv-19JCzwFs-171" value="0.n" style="edgeLabel;html=1;align=center;verticalAlign=middle;resizable=0;points=[];rounded=0;" parent="OxLEWKywHOv-19JCzwFs-68" vertex="1" connectable="0">
          <mxGeometry x="0.5611" relative="1" as="geometry">
            <mxPoint y="-17" as="offset" />
          </mxGeometry>
        </mxCell>
        <mxCell id="XJ-SBI3OwPLti13eH-zW-20" style="edgeStyle=orthogonalEdgeStyle;orthogonalLoop=1;jettySize=auto;html=1;fontColor=#000000;endArrow=none;endFill=0;rounded=0;shadow=0;strokeColor=default;" edge="1" parent="1" source="OxLEWKywHOv-19JCzwFs-69" target="01VOMUPUEz3-RHZkKi3b-32">
          <mxGeometry relative="1" as="geometry">
            <Array as="points">
              <mxPoint x="239" y="1240" />
              <mxPoint x="1320" y="1240" />
            </Array>
          </mxGeometry>
        </mxCell>
        <mxCell id="XJ-SBI3OwPLti13eH-zW-21" value="1,1" style="edgeLabel;html=1;align=center;verticalAlign=middle;resizable=0;points=[];fontColor=#000000;rounded=0;" vertex="1" connectable="0" parent="XJ-SBI3OwPLti13eH-zW-20">
          <mxGeometry x="-0.978" y="-1" relative="1" as="geometry">
            <mxPoint x="-1" as="offset" />
          </mxGeometry>
        </mxCell>
        <mxCell id="OxLEWKywHOv-19JCzwFs-69" value="PRESTATION_MÉDICALE" style="swimlane;html=1;fontStyle=0;childLayout=stackLayout;horizontal=1;startSize=26;fillColor=#e0e0e0;horizontalStack=0;resizeParent=1;resizeLast=0;collapsible=1;marginBottom=0;swimlaneFillColor=#ffffff;align=center;rounded=0;shadow=0;comic=0;labelBackgroundColor=none;strokeWidth=1;fontFamily=Verdana;fontSize=14;" parent="1" vertex="1">
          <mxGeometry x="130" y="1016" width="218" height="108" as="geometry">
            <mxRectangle x="400" y="70" width="120" height="30" as="alternateBounds" />
          </mxGeometry>
        </mxCell>
        <mxCell id="OxLEWKywHOv-19JCzwFs-70" value="ID_PRESTATION_MÉDICALE" style="shape=partialRectangle;top=0;left=0;right=0;bottom=1;html=1;align=left;verticalAlign=middle;fillColor=none;spacingLeft=34;spacingRight=4;whiteSpace=wrap;overflow=hidden;rotatable=0;points=[[0,0.5],[1,0.5]];portConstraint=eastwest;dropTarget=0;fontStyle=5;rounded=0;" parent="OxLEWKywHOv-19JCzwFs-69" vertex="1">
          <mxGeometry y="26" width="218" height="30" as="geometry" />
        </mxCell>
        <mxCell id="OxLEWKywHOv-19JCzwFs-71" value="PK" style="shape=partialRectangle;top=0;left=0;bottom=0;html=1;fillColor=none;align=left;verticalAlign=middle;spacingLeft=4;spacingRight=4;whiteSpace=wrap;overflow=hidden;rotatable=0;points=[];portConstraint=eastwest;part=1;rounded=0;" parent="OxLEWKywHOv-19JCzwFs-70" vertex="1" connectable="0">
          <mxGeometry width="30" height="30" as="geometry" />
        </mxCell>
        <mxCell id="OxLEWKywHOv-19JCzwFs-72" value="libelle" style="shape=partialRectangle;top=0;left=0;right=0;bottom=0;html=1;align=left;verticalAlign=top;fillColor=none;spacingLeft=34;spacingRight=4;whiteSpace=wrap;overflow=hidden;rotatable=0;points=[[0,0.5],[1,0.5]];portConstraint=eastwest;dropTarget=0;rounded=0;" parent="OxLEWKywHOv-19JCzwFs-69" vertex="1">
          <mxGeometry y="56" width="218" height="26" as="geometry" />
        </mxCell>
        <mxCell id="OxLEWKywHOv-19JCzwFs-73" value="" style="shape=partialRectangle;top=0;left=0;bottom=0;html=1;fillColor=none;align=left;verticalAlign=top;spacingLeft=4;spacingRight=4;whiteSpace=wrap;overflow=hidden;rotatable=0;points=[];portConstraint=eastwest;part=1;rounded=0;" parent="OxLEWKywHOv-19JCzwFs-72" vertex="1" connectable="0">
          <mxGeometry width="30" height="26" as="geometry" />
        </mxCell>
        <mxCell id="OxLEWKywHOv-19JCzwFs-74" value="plafond_demande" style="shape=partialRectangle;top=0;left=0;right=0;bottom=0;html=1;align=left;verticalAlign=top;fillColor=none;spacingLeft=34;spacingRight=4;whiteSpace=wrap;overflow=hidden;rotatable=0;points=[[0,0.5],[1,0.5]];portConstraint=eastwest;dropTarget=0;rounded=0;" parent="OxLEWKywHOv-19JCzwFs-69" vertex="1">
          <mxGeometry y="82" width="218" height="26" as="geometry" />
        </mxCell>
        <mxCell id="OxLEWKywHOv-19JCzwFs-75" value="" style="shape=partialRectangle;top=0;left=0;bottom=0;html=1;fillColor=none;align=left;verticalAlign=top;spacingLeft=4;spacingRight=4;whiteSpace=wrap;overflow=hidden;rotatable=0;points=[];portConstraint=eastwest;part=1;rounded=0;" parent="OxLEWKywHOv-19JCzwFs-74" vertex="1" connectable="0">
          <mxGeometry width="30" height="26" as="geometry" />
        </mxCell>
        <mxCell id="OxLEWKywHOv-19JCzwFs-78" value="" style="group;fontStyle=1;rounded=0;" parent="1" vertex="1" connectable="0">
          <mxGeometry x="470" y="1045" width="160" height="80" as="geometry" />
        </mxCell>
        <mxCell id="OxLEWKywHOv-19JCzwFs-79" value="inclus" style="swimlane;fontStyle=1;align=center;verticalAlign=middle;childLayout=stackLayout;horizontal=1;startSize=30;horizontalStack=0;resizeParent=0;resizeLast=1;container=0;collapsible=0;rounded=0;arcSize=30;swimlaneFillColor=#FFFFFF;dropTarget=0;fillColor=#CCCCCC;fontColor=#000000;" parent="OxLEWKywHOv-19JCzwFs-78" vertex="1">
          <mxGeometry width="160" height="80" as="geometry" />
        </mxCell>
        <mxCell id="OxLEWKywHOv-19JCzwFs-80" value="libelle_pres_conv" style="text;align=center;fontStyle=0;verticalAlign=middle;spacingLeft=3;spacingRight=3;strokeColor=none;rotatable=0;points=[[0,0.5],[1,0.5]];portConstraint=eastwest;fontColor=#000000;rounded=0;" parent="OxLEWKywHOv-19JCzwFs-78" vertex="1">
          <mxGeometry x="40" y="20" width="80" height="37.34" as="geometry" />
        </mxCell>
        <mxCell id="OxLEWKywHOv-19JCzwFs-81" value="prix_convention" style="text;align=center;fontStyle=0;verticalAlign=middle;spacingLeft=3;spacingRight=3;strokeColor=none;rotatable=0;points=[[0,0.5],[1,0.5]];portConstraint=eastwest;fontColor=#000000;rounded=0;" parent="OxLEWKywHOv-19JCzwFs-78" vertex="1">
          <mxGeometry x="40" y="45.330000000000155" width="80" height="34.666666666666664" as="geometry" />
        </mxCell>
        <mxCell id="OxLEWKywHOv-19JCzwFs-82" style="edgeStyle=elbowEdgeStyle;rounded=0;orthogonalLoop=1;jettySize=auto;html=1;endArrow=none;endFill=0;" parent="1" source="OxLEWKywHOv-19JCzwFs-79" target="OxLEWKywHOv-19JCzwFs-72" edge="1">
          <mxGeometry relative="1" as="geometry" />
        </mxCell>
        <mxCell id="OxLEWKywHOv-19JCzwFs-178" value="1,n" style="edgeLabel;html=1;align=center;verticalAlign=middle;resizable=0;points=[];rounded=0;" parent="OxLEWKywHOv-19JCzwFs-82" vertex="1" connectable="0">
          <mxGeometry x="0.64" y="-3" relative="1" as="geometry">
            <mxPoint as="offset" />
          </mxGeometry>
        </mxCell>
        <mxCell id="OxLEWKywHOv-19JCzwFs-83" style="edgeStyle=elbowEdgeStyle;rounded=0;orthogonalLoop=1;jettySize=auto;html=1;endArrow=none;endFill=0;" parent="1" source="OxLEWKywHOv-19JCzwFs-79" target="5KgQhFO7GnKElYih4QEI-82" edge="1">
          <mxGeometry relative="1" as="geometry" />
        </mxCell>
        <mxCell id="OxLEWKywHOv-19JCzwFs-177" value="1,n" style="edgeLabel;html=1;align=center;verticalAlign=middle;resizable=0;points=[];rounded=0;" parent="OxLEWKywHOv-19JCzwFs-83" vertex="1" connectable="0">
          <mxGeometry x="0.4433" y="2" relative="1" as="geometry">
            <mxPoint as="offset" />
          </mxGeometry>
        </mxCell>
        <mxCell id="OxLEWKywHOv-19JCzwFs-88" value="" style="group;fontStyle=1;rounded=0;" parent="1" vertex="1" connectable="0">
          <mxGeometry x="1040" y="1055" width="160" height="60" as="geometry" />
        </mxCell>
        <mxCell id="OxLEWKywHOv-19JCzwFs-89" value="inclus" style="swimlane;fontStyle=1;align=center;verticalAlign=middle;childLayout=stackLayout;horizontal=1;startSize=30;horizontalStack=0;resizeParent=0;resizeLast=1;container=0;collapsible=0;rounded=0;arcSize=30;swimlaneFillColor=#FFFFFF;dropTarget=0;fillColor=#CCCCCC;fontColor=#000000;" parent="OxLEWKywHOv-19JCzwFs-88" vertex="1">
          <mxGeometry width="160" height="60" as="geometry" />
        </mxCell>
        <mxCell id="OxLEWKywHOv-19JCzwFs-91" style="edgeStyle=elbowEdgeStyle;rounded=0;orthogonalLoop=1;jettySize=auto;html=1;endArrow=none;endFill=0;" parent="1" source="OxLEWKywHOv-19JCzwFs-89" target="5KgQhFO7GnKElYih4QEI-82" edge="1">
          <mxGeometry relative="1" as="geometry" />
        </mxCell>
        <mxCell id="OxLEWKywHOv-19JCzwFs-176" value="0,n" style="edgeLabel;html=1;align=center;verticalAlign=middle;resizable=0;points=[];rounded=0;" parent="OxLEWKywHOv-19JCzwFs-91" vertex="1" connectable="0">
          <mxGeometry x="0.5785" y="-1" relative="1" as="geometry">
            <mxPoint as="offset" />
          </mxGeometry>
        </mxCell>
        <mxCell id="OxLEWKywHOv-19JCzwFs-99" value="" style="group;fontStyle=1;rounded=0;" parent="1" vertex="1" connectable="0">
          <mxGeometry x="1350" y="1566" width="160" height="60" as="geometry" />
        </mxCell>
        <mxCell id="OxLEWKywHOv-19JCzwFs-100" value="appartient à" style="swimlane;fontStyle=1;align=center;verticalAlign=middle;childLayout=stackLayout;horizontal=1;startSize=30;horizontalStack=0;resizeParent=0;resizeLast=1;container=0;collapsible=0;rounded=0;arcSize=30;swimlaneFillColor=#FFFFFF;dropTarget=0;fillColor=#CCCCCC;fontColor=#000000;" parent="OxLEWKywHOv-19JCzwFs-99" vertex="1">
          <mxGeometry width="160" height="60" as="geometry" />
        </mxCell>
        <mxCell id="OxLEWKywHOv-19JCzwFs-101" style="edgeStyle=elbowEdgeStyle;rounded=0;orthogonalLoop=1;jettySize=auto;html=1;endArrow=none;endFill=0;" parent="1" source="OxLEWKywHOv-19JCzwFs-100" target="5KgQhFO7GnKElYih4QEI-89" edge="1">
          <mxGeometry relative="1" as="geometry" />
        </mxCell>
        <mxCell id="OxLEWKywHOv-19JCzwFs-189" value="0,n" style="edgeLabel;html=1;align=center;verticalAlign=middle;resizable=0;points=[];rounded=0;" parent="OxLEWKywHOv-19JCzwFs-101" vertex="1" connectable="0">
          <mxGeometry x="0.6833" y="-1" relative="1" as="geometry">
            <mxPoint x="-1" y="-49" as="offset" />
          </mxGeometry>
        </mxCell>
        <mxCell id="OxLEWKywHOv-19JCzwFs-102" style="edgeStyle=elbowEdgeStyle;rounded=0;orthogonalLoop=1;jettySize=auto;html=1;endArrow=none;endFill=0;jumpStyle=arc;" parent="1" source="OxLEWKywHOv-19JCzwFs-100" target="5KgQhFO7GnKElYih4QEI-105" edge="1">
          <mxGeometry relative="1" as="geometry" />
        </mxCell>
        <mxCell id="OxLEWKywHOv-19JCzwFs-190" value="1,1" style="edgeLabel;html=1;align=center;verticalAlign=middle;resizable=0;points=[];rounded=0;" parent="OxLEWKywHOv-19JCzwFs-102" vertex="1" connectable="0">
          <mxGeometry x="0.7986" y="1" relative="1" as="geometry">
            <mxPoint x="-15" y="-2" as="offset" />
          </mxGeometry>
        </mxCell>
        <mxCell id="OxLEWKywHOv-19JCzwFs-103" value="" style="group;fontStyle=1;rounded=0;" parent="1" vertex="1" connectable="0">
          <mxGeometry x="750" y="905" width="160" height="60" as="geometry" />
        </mxCell>
        <mxCell id="OxLEWKywHOv-19JCzwFs-104" value="appartient à" style="swimlane;fontStyle=1;align=center;verticalAlign=middle;childLayout=stackLayout;horizontal=1;startSize=30;horizontalStack=0;resizeParent=0;resizeLast=1;container=0;collapsible=0;rounded=0;arcSize=30;swimlaneFillColor=#FFFFFF;dropTarget=0;fillColor=#CCCCCC;fontColor=#000000;" parent="OxLEWKywHOv-19JCzwFs-103" vertex="1">
          <mxGeometry width="160" height="60" as="geometry" />
        </mxCell>
        <mxCell id="OxLEWKywHOv-19JCzwFs-105" style="edgeStyle=elbowEdgeStyle;rounded=0;orthogonalLoop=1;jettySize=auto;html=1;endArrow=none;endFill=0;" parent="1" source="OxLEWKywHOv-19JCzwFs-104" target="OxLEWKywHOv-19JCzwFs-52" edge="1">
          <mxGeometry relative="1" as="geometry" />
        </mxCell>
        <mxCell id="OxLEWKywHOv-19JCzwFs-173" value="1,n" style="edgeLabel;html=1;align=center;verticalAlign=middle;resizable=0;points=[];rounded=0;" parent="OxLEWKywHOv-19JCzwFs-105" vertex="1" connectable="0">
          <mxGeometry x="0.4947" y="2" relative="1" as="geometry">
            <mxPoint x="2" y="-7" as="offset" />
          </mxGeometry>
        </mxCell>
        <mxCell id="OxLEWKywHOv-19JCzwFs-106" style="edgeStyle=elbowEdgeStyle;rounded=0;orthogonalLoop=1;jettySize=auto;html=1;endArrow=none;endFill=0;" parent="1" source="OxLEWKywHOv-19JCzwFs-104" target="5KgQhFO7GnKElYih4QEI-82" edge="1">
          <mxGeometry relative="1" as="geometry" />
        </mxCell>
        <mxCell id="OxLEWKywHOv-19JCzwFs-174" value="0,n" style="edgeLabel;html=1;align=center;verticalAlign=middle;resizable=0;points=[];rounded=0;" parent="OxLEWKywHOv-19JCzwFs-106" vertex="1" connectable="0">
          <mxGeometry x="0.3046" y="1" relative="1" as="geometry">
            <mxPoint x="-1" y="8" as="offset" />
          </mxGeometry>
        </mxCell>
        <mxCell id="OxLEWKywHOv-19JCzwFs-123" style="edgeStyle=elbowEdgeStyle;rounded=0;orthogonalLoop=1;jettySize=auto;html=1;endArrow=none;endFill=0;" parent="1" source="OxLEWKywHOv-19JCzwFs-107" target="OxLEWKywHOv-19JCzwFs-122" edge="1">
          <mxGeometry relative="1" as="geometry" />
        </mxCell>
        <mxCell id="OxLEWKywHOv-19JCzwFs-182" value="1,n" style="edgeLabel;html=1;align=center;verticalAlign=middle;resizable=0;points=[];rounded=0;" parent="OxLEWKywHOv-19JCzwFs-123" vertex="1" connectable="0">
          <mxGeometry x="-0.5212" y="2" relative="1" as="geometry">
            <mxPoint x="6" y="-2" as="offset" />
          </mxGeometry>
        </mxCell>
        <mxCell id="OxLEWKywHOv-19JCzwFs-125" style="edgeStyle=elbowEdgeStyle;rounded=0;orthogonalLoop=1;jettySize=auto;html=1;endArrow=none;endFill=0;" parent="1" source="OxLEWKywHOv-19JCzwFs-107" target="OxLEWKywHOv-19JCzwFs-127" edge="1">
          <mxGeometry relative="1" as="geometry">
            <mxPoint x="870" y="1699" as="targetPoint" />
          </mxGeometry>
        </mxCell>
        <mxCell id="OxLEWKywHOv-19JCzwFs-183" value="1.n" style="edgeLabel;html=1;align=center;verticalAlign=middle;resizable=0;points=[];rounded=0;" parent="OxLEWKywHOv-19JCzwFs-125" vertex="1" connectable="0">
          <mxGeometry x="-0.2263" y="5" relative="1" as="geometry">
            <mxPoint x="-23" y="5" as="offset" />
          </mxGeometry>
        </mxCell>
        <mxCell id="OxLEWKywHOv-19JCzwFs-107" value="PROFILE" style="swimlane;html=1;fontStyle=0;childLayout=stackLayout;horizontal=1;startSize=26;fillColor=#e0e0e0;horizontalStack=0;resizeParent=1;resizeLast=0;collapsible=1;marginBottom=0;swimlaneFillColor=#ffffff;align=center;rounded=0;shadow=0;comic=0;labelBackgroundColor=none;strokeWidth=1;fontFamily=Verdana;fontSize=14;" parent="1" vertex="1">
          <mxGeometry x="640" y="1834" width="160" height="112" as="geometry">
            <mxRectangle x="980" y="1480" width="100" height="30" as="alternateBounds" />
          </mxGeometry>
        </mxCell>
        <mxCell id="OxLEWKywHOv-19JCzwFs-108" value="ID_PROFILE" style="shape=partialRectangle;top=0;left=0;right=0;bottom=1;html=1;align=left;verticalAlign=middle;fillColor=none;spacingLeft=34;spacingRight=4;whiteSpace=wrap;overflow=hidden;rotatable=0;points=[[0,0.5],[1,0.5]];portConstraint=eastwest;dropTarget=0;fontStyle=5;rounded=0;" parent="OxLEWKywHOv-19JCzwFs-107" vertex="1">
          <mxGeometry y="26" width="160" height="30" as="geometry" />
        </mxCell>
        <mxCell id="OxLEWKywHOv-19JCzwFs-109" value="PK" style="shape=partialRectangle;top=0;left=0;bottom=0;html=1;fillColor=none;align=left;verticalAlign=middle;spacingLeft=4;spacingRight=4;whiteSpace=wrap;overflow=hidden;rotatable=0;points=[];portConstraint=eastwest;part=1;rounded=0;" parent="OxLEWKywHOv-19JCzwFs-108" vertex="1" connectable="0">
          <mxGeometry width="30" height="30" as="geometry" />
        </mxCell>
        <mxCell id="OxLEWKywHOv-19JCzwFs-224" value="libelle" style="shape=partialRectangle;top=0;left=0;right=0;bottom=0;html=1;align=left;verticalAlign=top;fillColor=none;spacingLeft=34;spacingRight=4;whiteSpace=wrap;overflow=hidden;rotatable=0;points=[[0,0.5],[1,0.5]];portConstraint=eastwest;dropTarget=0;rounded=0;" parent="OxLEWKywHOv-19JCzwFs-107" vertex="1">
          <mxGeometry y="56" width="160" height="26" as="geometry" />
        </mxCell>
        <mxCell id="OxLEWKywHOv-19JCzwFs-225" value="" style="shape=partialRectangle;top=0;left=0;bottom=0;html=1;fillColor=none;align=left;verticalAlign=top;spacingLeft=4;spacingRight=4;whiteSpace=wrap;overflow=hidden;rotatable=0;points=[];portConstraint=eastwest;part=1;rounded=0;" parent="OxLEWKywHOv-19JCzwFs-224" vertex="1" connectable="0">
          <mxGeometry width="30" height="26" as="geometry" />
        </mxCell>
        <mxCell id="OxLEWKywHOv-19JCzwFs-219" value="description" style="shape=partialRectangle;top=0;left=0;right=0;bottom=0;html=1;align=left;verticalAlign=top;fillColor=none;spacingLeft=34;spacingRight=4;whiteSpace=wrap;overflow=hidden;rotatable=0;points=[[0,0.5],[1,0.5]];portConstraint=eastwest;dropTarget=0;rounded=0;" parent="OxLEWKywHOv-19JCzwFs-107" vertex="1">
          <mxGeometry y="82" width="160" height="26" as="geometry" />
        </mxCell>
        <mxCell id="OxLEWKywHOv-19JCzwFs-220" value="" style="shape=partialRectangle;top=0;left=0;bottom=0;html=1;fillColor=none;align=left;verticalAlign=top;spacingLeft=4;spacingRight=4;whiteSpace=wrap;overflow=hidden;rotatable=0;points=[];portConstraint=eastwest;part=1;rounded=0;" parent="OxLEWKywHOv-19JCzwFs-219" vertex="1" connectable="0">
          <mxGeometry width="30" height="26" as="geometry" />
        </mxCell>
        <mxCell id="OxLEWKywHOv-19JCzwFs-114" value="PRIVILAGE" style="swimlane;html=1;fontStyle=0;childLayout=stackLayout;horizontal=1;startSize=26;fillColor=#e0e0e0;horizontalStack=0;resizeParent=1;resizeLast=0;collapsible=1;marginBottom=0;swimlaneFillColor=#ffffff;align=center;rounded=0;shadow=0;comic=0;labelBackgroundColor=none;strokeWidth=1;fontFamily=Verdana;fontSize=14;" parent="1" vertex="1">
          <mxGeometry x="-50" y="1834" width="160" height="112" as="geometry">
            <mxRectangle x="980" y="1480" width="100" height="30" as="alternateBounds" />
          </mxGeometry>
        </mxCell>
        <mxCell id="OxLEWKywHOv-19JCzwFs-115" value="ID_PRIVILAGE" style="shape=partialRectangle;top=0;left=0;right=0;bottom=1;html=1;align=left;verticalAlign=middle;fillColor=none;spacingLeft=34;spacingRight=4;whiteSpace=wrap;overflow=hidden;rotatable=0;points=[[0,0.5],[1,0.5]];portConstraint=eastwest;dropTarget=0;fontStyle=5;rounded=0;" parent="OxLEWKywHOv-19JCzwFs-114" vertex="1">
          <mxGeometry y="26" width="160" height="30" as="geometry" />
        </mxCell>
        <mxCell id="OxLEWKywHOv-19JCzwFs-116" value="PK" style="shape=partialRectangle;top=0;left=0;bottom=0;html=1;fillColor=none;align=left;verticalAlign=middle;spacingLeft=4;spacingRight=4;whiteSpace=wrap;overflow=hidden;rotatable=0;points=[];portConstraint=eastwest;part=1;rounded=0;" parent="OxLEWKywHOv-19JCzwFs-115" vertex="1" connectable="0">
          <mxGeometry width="30" height="30" as="geometry" />
        </mxCell>
        <mxCell id="OxLEWKywHOv-19JCzwFs-119" value="libelle" style="shape=partialRectangle;top=0;left=0;right=0;bottom=0;html=1;align=left;verticalAlign=top;fillColor=none;spacingLeft=34;spacingRight=4;whiteSpace=wrap;overflow=hidden;rotatable=0;points=[[0,0.5],[1,0.5]];portConstraint=eastwest;dropTarget=0;rounded=0;" parent="OxLEWKywHOv-19JCzwFs-114" vertex="1">
          <mxGeometry y="56" width="160" height="26" as="geometry" />
        </mxCell>
        <mxCell id="OxLEWKywHOv-19JCzwFs-120" value="" style="shape=partialRectangle;top=0;left=0;bottom=0;html=1;fillColor=none;align=left;verticalAlign=top;spacingLeft=4;spacingRight=4;whiteSpace=wrap;overflow=hidden;rotatable=0;points=[];portConstraint=eastwest;part=1;rounded=0;" parent="OxLEWKywHOv-19JCzwFs-119" vertex="1" connectable="0">
          <mxGeometry width="30" height="26" as="geometry" />
        </mxCell>
        <mxCell id="OxLEWKywHOv-19JCzwFs-226" value="description" style="shape=partialRectangle;top=0;left=0;right=0;bottom=0;html=1;align=left;verticalAlign=top;fillColor=none;spacingLeft=34;spacingRight=4;whiteSpace=wrap;overflow=hidden;rotatable=0;points=[[0,0.5],[1,0.5]];portConstraint=eastwest;dropTarget=0;rounded=0;" parent="OxLEWKywHOv-19JCzwFs-114" vertex="1">
          <mxGeometry y="82" width="160" height="26" as="geometry" />
        </mxCell>
        <mxCell id="OxLEWKywHOv-19JCzwFs-227" value="" style="shape=partialRectangle;top=0;left=0;bottom=0;html=1;fillColor=none;align=left;verticalAlign=top;spacingLeft=4;spacingRight=4;whiteSpace=wrap;overflow=hidden;rotatable=0;points=[];portConstraint=eastwest;part=1;rounded=0;" parent="OxLEWKywHOv-19JCzwFs-226" vertex="1" connectable="0">
          <mxGeometry width="30" height="26" as="geometry" />
        </mxCell>
        <mxCell id="OxLEWKywHOv-19JCzwFs-121" value="" style="group;fontStyle=1;rounded=0;" parent="1" vertex="1" connectable="0">
          <mxGeometry x="370" y="1860" width="160" height="60" as="geometry" />
        </mxCell>
        <mxCell id="OxLEWKywHOv-19JCzwFs-122" value="avoir" style="swimlane;fontStyle=1;align=center;verticalAlign=middle;childLayout=stackLayout;horizontal=1;startSize=30;horizontalStack=0;resizeParent=0;resizeLast=1;container=0;collapsible=0;rounded=0;arcSize=30;swimlaneFillColor=#FFFFFF;dropTarget=0;fillColor=#CCCCCC;fontColor=#000000;" parent="OxLEWKywHOv-19JCzwFs-121" vertex="1">
          <mxGeometry width="160" height="60" as="geometry" />
        </mxCell>
        <mxCell id="OxLEWKywHOv-19JCzwFs-126" value="" style="group;fontStyle=1;rounded=0;" parent="1" vertex="1" connectable="0">
          <mxGeometry x="910" y="1860" width="160" height="60" as="geometry" />
        </mxCell>
        <mxCell id="OxLEWKywHOv-19JCzwFs-127" value="avoir" style="swimlane;fontStyle=1;align=center;verticalAlign=middle;childLayout=stackLayout;horizontal=1;startSize=30;horizontalStack=0;resizeParent=0;resizeLast=1;container=0;collapsible=0;rounded=0;arcSize=30;swimlaneFillColor=#FFFFFF;dropTarget=0;fillColor=#CCCCCC;fontColor=#000000;" parent="OxLEWKywHOv-19JCzwFs-126" vertex="1">
          <mxGeometry width="160" height="60" as="geometry" />
        </mxCell>
        <mxCell id="OxLEWKywHOv-19JCzwFs-128" style="edgeStyle=elbowEdgeStyle;rounded=0;orthogonalLoop=1;jettySize=auto;html=1;endArrow=none;endFill=0;" parent="1" source="OxLEWKywHOv-19JCzwFs-127" target="5KgQhFO7GnKElYih4QEI-52" edge="1">
          <mxGeometry relative="1" as="geometry">
            <Array as="points">
              <mxPoint x="1110" y="1890" />
              <mxPoint x="1160" y="1880" />
            </Array>
          </mxGeometry>
        </mxCell>
        <mxCell id="OxLEWKywHOv-19JCzwFs-184" value="0,n" style="edgeLabel;html=1;align=center;verticalAlign=middle;resizable=0;points=[];rounded=0;" parent="OxLEWKywHOv-19JCzwFs-128" vertex="1" connectable="0">
          <mxGeometry x="0.4068" y="2" relative="1" as="geometry">
            <mxPoint x="23" y="1" as="offset" />
          </mxGeometry>
        </mxCell>
        <mxCell id="OxLEWKywHOv-19JCzwFs-142" style="edgeStyle=elbowEdgeStyle;rounded=0;orthogonalLoop=1;jettySize=auto;html=1;endArrow=none;endFill=0;entryX=0.5;entryY=1;entryDx=0;entryDy=0;" parent="1" source="OxLEWKywHOv-19JCzwFs-129" target="OxLEWKywHOv-19JCzwFs-141" edge="1">
          <mxGeometry relative="1" as="geometry" />
        </mxCell>
        <mxCell id="OxLEWKywHOv-19JCzwFs-188" value="0,n" style="edgeLabel;html=1;align=center;verticalAlign=middle;resizable=0;points=[];rounded=0;" parent="OxLEWKywHOv-19JCzwFs-142" vertex="1" connectable="0">
          <mxGeometry x="-0.9628" y="3" relative="1" as="geometry">
            <mxPoint x="3" y="4" as="offset" />
          </mxGeometry>
        </mxCell>
        <mxCell id="OxLEWKywHOv-19JCzwFs-129" value="DEMANDE" style="swimlane;html=1;fontStyle=0;childLayout=stackLayout;horizontal=1;startSize=26;fillColor=#e0e0e0;horizontalStack=0;resizeParent=1;resizeLast=0;collapsible=1;marginBottom=0;swimlaneFillColor=#ffffff;align=center;rounded=0;shadow=0;comic=0;labelBackgroundColor=none;strokeWidth=1;fontFamily=Verdana;fontSize=14;" parent="1" vertex="1">
          <mxGeometry x="1650" y="1600" width="160" height="160" as="geometry">
            <mxRectangle x="1310" y="1060" width="150" height="30" as="alternateBounds" />
          </mxGeometry>
        </mxCell>
        <mxCell id="OxLEWKywHOv-19JCzwFs-130" value="ID_DEMANDE" style="shape=partialRectangle;top=0;left=0;right=0;bottom=1;html=1;align=left;verticalAlign=middle;fillColor=none;spacingLeft=34;spacingRight=4;whiteSpace=wrap;overflow=hidden;rotatable=0;points=[[0,0.5],[1,0.5]];portConstraint=eastwest;dropTarget=0;fontStyle=5;rounded=0;" parent="OxLEWKywHOv-19JCzwFs-129" vertex="1">
          <mxGeometry y="26" width="160" height="30" as="geometry" />
        </mxCell>
        <mxCell id="OxLEWKywHOv-19JCzwFs-131" value="PK" style="shape=partialRectangle;top=0;left=0;bottom=0;html=1;fillColor=none;align=left;verticalAlign=middle;spacingLeft=4;spacingRight=4;whiteSpace=wrap;overflow=hidden;rotatable=0;points=[];portConstraint=eastwest;part=1;rounded=0;" parent="OxLEWKywHOv-19JCzwFs-130" vertex="1" connectable="0">
          <mxGeometry width="30" height="30" as="geometry" />
        </mxCell>
        <mxCell id="OxLEWKywHOv-19JCzwFs-338" value="date_demande" style="shape=partialRectangle;top=0;left=0;right=0;bottom=0;html=1;align=left;verticalAlign=top;fillColor=none;spacingLeft=34;spacingRight=4;whiteSpace=wrap;overflow=hidden;rotatable=0;points=[[0,0.5],[1,0.5]];portConstraint=eastwest;dropTarget=0;rounded=0;" parent="OxLEWKywHOv-19JCzwFs-129" vertex="1">
          <mxGeometry y="56" width="160" height="26" as="geometry" />
        </mxCell>
        <mxCell id="OxLEWKywHOv-19JCzwFs-339" value="" style="shape=partialRectangle;top=0;left=0;bottom=0;html=1;fillColor=none;align=left;verticalAlign=top;spacingLeft=4;spacingRight=4;whiteSpace=wrap;overflow=hidden;rotatable=0;points=[];portConstraint=eastwest;part=1;rounded=0;" parent="OxLEWKywHOv-19JCzwFs-338" vertex="1" connectable="0">
          <mxGeometry width="30" height="26" as="geometry" />
        </mxCell>
        <mxCell id="OxLEWKywHOv-19JCzwFs-134" value="consomme" style="shape=partialRectangle;top=0;left=0;right=0;bottom=0;html=1;align=left;verticalAlign=top;fillColor=none;spacingLeft=34;spacingRight=4;whiteSpace=wrap;overflow=hidden;rotatable=0;points=[[0,0.5],[1,0.5]];portConstraint=eastwest;dropTarget=0;rounded=0;" parent="OxLEWKywHOv-19JCzwFs-129" vertex="1">
          <mxGeometry y="82" width="160" height="26" as="geometry" />
        </mxCell>
        <mxCell id="OxLEWKywHOv-19JCzwFs-135" value="" style="shape=partialRectangle;top=0;left=0;bottom=0;html=1;fillColor=none;align=left;verticalAlign=top;spacingLeft=4;spacingRight=4;whiteSpace=wrap;overflow=hidden;rotatable=0;points=[];portConstraint=eastwest;part=1;rounded=0;" parent="OxLEWKywHOv-19JCzwFs-134" vertex="1" connectable="0">
          <mxGeometry width="30" height="26" as="geometry" />
        </mxCell>
        <mxCell id="OxLEWKywHOv-19JCzwFs-334" value="motif_rejet" style="shape=partialRectangle;top=0;left=0;right=0;bottom=0;html=1;align=left;verticalAlign=top;fillColor=none;spacingLeft=34;spacingRight=4;whiteSpace=wrap;overflow=hidden;rotatable=0;points=[[0,0.5],[1,0.5]];portConstraint=eastwest;dropTarget=0;rounded=0;" parent="OxLEWKywHOv-19JCzwFs-129" vertex="1">
          <mxGeometry y="108" width="160" height="26" as="geometry" />
        </mxCell>
        <mxCell id="OxLEWKywHOv-19JCzwFs-335" value="" style="shape=partialRectangle;top=0;left=0;bottom=0;html=1;fillColor=none;align=left;verticalAlign=top;spacingLeft=4;spacingRight=4;whiteSpace=wrap;overflow=hidden;rotatable=0;points=[];portConstraint=eastwest;part=1;rounded=0;" parent="OxLEWKywHOv-19JCzwFs-334" vertex="1" connectable="0">
          <mxGeometry width="30" height="26" as="geometry" />
        </mxCell>
        <mxCell id="OxLEWKywHOv-19JCzwFs-340" value="status" style="shape=partialRectangle;top=0;left=0;right=0;bottom=0;html=1;align=left;verticalAlign=top;fillColor=none;spacingLeft=34;spacingRight=4;whiteSpace=wrap;overflow=hidden;rotatable=0;points=[[0,0.5],[1,0.5]];portConstraint=eastwest;dropTarget=0;rounded=0;" parent="OxLEWKywHOv-19JCzwFs-129" vertex="1">
          <mxGeometry y="134" width="160" height="26" as="geometry" />
        </mxCell>
        <mxCell id="OxLEWKywHOv-19JCzwFs-341" value="" style="shape=partialRectangle;top=0;left=0;bottom=0;html=1;fillColor=none;align=left;verticalAlign=top;spacingLeft=4;spacingRight=4;whiteSpace=wrap;overflow=hidden;rotatable=0;points=[];portConstraint=eastwest;part=1;rounded=0;" parent="OxLEWKywHOv-19JCzwFs-340" vertex="1" connectable="0">
          <mxGeometry width="30" height="26" as="geometry" />
        </mxCell>
        <mxCell id="OxLEWKywHOv-19JCzwFs-139" style="edgeStyle=elbowEdgeStyle;rounded=0;orthogonalLoop=1;jettySize=auto;html=1;endArrow=none;endFill=0;" parent="1" source="OxLEWKywHOv-19JCzwFs-204" target="OxLEWKywHOv-19JCzwFs-129" edge="1">
          <mxGeometry relative="1" as="geometry">
            <mxPoint x="1370" y="1680" as="sourcePoint" />
          </mxGeometry>
        </mxCell>
        <mxCell id="OxLEWKywHOv-19JCzwFs-185" value="0,n" style="edgeLabel;html=1;align=center;verticalAlign=middle;resizable=0;points=[];rounded=0;" parent="OxLEWKywHOv-19JCzwFs-139" vertex="1" connectable="0">
          <mxGeometry x="0.8413" y="-1" relative="1" as="geometry">
            <mxPoint x="3" y="-12" as="offset" />
          </mxGeometry>
        </mxCell>
        <mxCell id="OxLEWKywHOv-19JCzwFs-140" value="" style="group;fontStyle=1;rounded=0;" parent="1" vertex="1" connectable="0">
          <mxGeometry x="1720" y="761" width="160" height="90" as="geometry" />
        </mxCell>
        <mxCell id="OxLEWKywHOv-19JCzwFs-141" value="demande par" style="swimlane;fontStyle=1;align=center;verticalAlign=middle;childLayout=stackLayout;horizontal=1;startSize=30;horizontalStack=0;resizeParent=0;resizeLast=1;container=0;collapsible=0;rounded=0;arcSize=30;swimlaneFillColor=#FFFFFF;dropTarget=0;fillColor=#CCCCCC;fontColor=#000000;" parent="OxLEWKywHOv-19JCzwFs-140" vertex="1">
          <mxGeometry width="160" height="60" as="geometry" />
        </mxCell>
        <mxCell id="XJ-SBI3OwPLti13eH-zW-41" value="lien_parentie" style="text;html=1;strokeColor=none;fillColor=none;align=center;verticalAlign=middle;whiteSpace=wrap;rounded=0;fontColor=#000000;" vertex="1" parent="OxLEWKywHOv-19JCzwFs-140">
          <mxGeometry x="50" y="29" width="60" height="30" as="geometry" />
        </mxCell>
        <mxCell id="OxLEWKywHOv-19JCzwFs-144" value="" style="group;fontStyle=1;rounded=0;" parent="1" vertex="1" connectable="0">
          <mxGeometry x="910" y="1782" width="160" height="60" as="geometry" />
        </mxCell>
        <mxCell id="OxLEWKywHOv-19JCzwFs-145" value="appartient à" style="swimlane;fontStyle=1;align=center;verticalAlign=middle;childLayout=stackLayout;horizontal=1;startSize=30;horizontalStack=0;resizeParent=0;resizeLast=1;container=0;collapsible=0;rounded=0;arcSize=30;swimlaneFillColor=#FFFFFF;dropTarget=0;fillColor=#CCCCCC;fontColor=#000000;" parent="OxLEWKywHOv-19JCzwFs-144" vertex="1">
          <mxGeometry width="160" height="60" as="geometry" />
        </mxCell>
        <mxCell id="OxLEWKywHOv-19JCzwFs-148" style="edgeStyle=elbowEdgeStyle;rounded=0;orthogonalLoop=1;jettySize=auto;html=1;endArrow=none;endFill=0;" parent="1" source="OxLEWKywHOv-19JCzwFs-145" target="5KgQhFO7GnKElYih4QEI-105" edge="1">
          <mxGeometry relative="1" as="geometry" />
        </mxCell>
        <mxCell id="OxLEWKywHOv-19JCzwFs-179" value="1,1" style="edgeLabel;html=1;align=center;verticalAlign=middle;resizable=0;points=[];rounded=0;" parent="OxLEWKywHOv-19JCzwFs-148" vertex="1" connectable="0">
          <mxGeometry x="0.8591" y="-3" relative="1" as="geometry">
            <mxPoint y="7" as="offset" />
          </mxGeometry>
        </mxCell>
        <mxCell id="OxLEWKywHOv-19JCzwFs-157" style="edgeStyle=elbowEdgeStyle;rounded=0;orthogonalLoop=1;jettySize=auto;html=1;endArrow=none;endFill=0;" parent="1" source="OxLEWKywHOv-19JCzwFs-49" edge="1" target="2e49270ec7c68f3f-80">
          <mxGeometry relative="1" as="geometry">
            <mxPoint x="580.0000000000001" y="29.88000000000011" as="targetPoint" />
          </mxGeometry>
        </mxCell>
        <mxCell id="OxLEWKywHOv-19JCzwFs-163" value="1,n" style="edgeLabel;html=1;align=center;verticalAlign=middle;resizable=0;points=[];rounded=0;" parent="OxLEWKywHOv-19JCzwFs-157" vertex="1" connectable="0">
          <mxGeometry x="0.734" y="1" relative="1" as="geometry">
            <mxPoint as="offset" />
          </mxGeometry>
        </mxCell>
        <mxCell id="OxLEWKywHOv-19JCzwFs-158" style="edgeStyle=elbowEdgeStyle;rounded=0;orthogonalLoop=1;jettySize=auto;html=1;endArrow=none;endFill=0;entryX=1;entryY=0.5;entryDx=0;entryDy=0;" parent="1" source="OxLEWKywHOv-19JCzwFs-141" target="XJ-SBI3OwPLti13eH-zW-22" edge="1">
          <mxGeometry relative="1" as="geometry">
            <mxPoint x="1440" y="390" as="targetPoint" />
            <Array as="points">
              <mxPoint x="1610" y="760" />
              <mxPoint x="1570" y="398" />
              <mxPoint x="1590" y="398" />
            </Array>
          </mxGeometry>
        </mxCell>
        <mxCell id="OxLEWKywHOv-19JCzwFs-187" value="1,1" style="edgeLabel;html=1;align=center;verticalAlign=middle;resizable=0;points=[];rounded=0;" parent="OxLEWKywHOv-19JCzwFs-158" vertex="1" connectable="0">
          <mxGeometry x="0.7728" y="-5" relative="1" as="geometry">
            <mxPoint x="-8" y="1" as="offset" />
          </mxGeometry>
        </mxCell>
        <mxCell id="OxLEWKywHOv-19JCzwFs-203" value="" style="group;fontStyle=1;rounded=0;" parent="1" vertex="1" connectable="0">
          <mxGeometry x="1200" y="1640" width="160" height="80" as="geometry" />
        </mxCell>
        <mxCell id="OxLEWKywHOv-19JCzwFs-204" value="intervention" style="swimlane;fontStyle=1;align=center;verticalAlign=middle;childLayout=stackLayout;horizontal=1;startSize=30;horizontalStack=0;resizeParent=0;resizeLast=1;container=0;collapsible=0;rounded=0;arcSize=30;swimlaneFillColor=#FFFFFF;dropTarget=0;fillColor=#CCCCCC;fontColor=#000000;" parent="OxLEWKywHOv-19JCzwFs-203" vertex="1">
          <mxGeometry width="160" height="80" as="geometry" />
        </mxCell>
        <mxCell id="OxLEWKywHOv-19JCzwFs-205" value="inter_date_heure" style="text;align=center;fontStyle=0;verticalAlign=middle;spacingLeft=3;spacingRight=3;strokeColor=none;rotatable=0;points=[[0,0.5],[1,0.5]];portConstraint=eastwest;fontColor=#000000;rounded=0;" parent="OxLEWKywHOv-19JCzwFs-203" vertex="1">
          <mxGeometry x="40" y="20" width="80" height="37.34" as="geometry" />
        </mxCell>
        <mxCell id="OxLEWKywHOv-19JCzwFs-206" value="inter_status" style="text;align=center;fontStyle=0;verticalAlign=middle;spacingLeft=3;spacingRight=3;strokeColor=none;rotatable=0;points=[[0,0.5],[1,0.5]];portConstraint=eastwest;fontColor=#000000;rounded=0;" parent="OxLEWKywHOv-19JCzwFs-203" vertex="1">
          <mxGeometry x="40" y="45.330000000000155" width="80" height="34.666666666666664" as="geometry" />
        </mxCell>
        <mxCell id="OxLEWKywHOv-19JCzwFs-221" style="edgeStyle=elbowEdgeStyle;rounded=0;orthogonalLoop=1;jettySize=auto;html=1;entryX=0;entryY=0.25;entryDx=0;entryDy=0;endArrow=none;endFill=0;exitX=1;exitY=0.5;exitDx=0;exitDy=0;" parent="1" source="OxLEWKywHOv-19JCzwFs-145" target="5KgQhFO7GnKElYih4QEI-52" edge="1">
          <mxGeometry relative="1" as="geometry">
            <Array as="points">
              <mxPoint x="1180" y="1820" />
              <mxPoint x="1160" y="1810" />
              <mxPoint x="1140" y="1810" />
              <mxPoint x="1100" y="1820" />
              <mxPoint x="880" y="1770" />
              <mxPoint x="740" y="1830" />
              <mxPoint x="740" y="1670" />
              <mxPoint x="790" y="1660" />
              <mxPoint x="850" y="1790" />
              <mxPoint x="720" y="1690" />
              <mxPoint x="850" y="1690" />
              <mxPoint x="910" y="1690" />
            </Array>
          </mxGeometry>
        </mxCell>
        <mxCell id="OxLEWKywHOv-19JCzwFs-222" value="1,n" style="edgeLabel;html=1;align=center;verticalAlign=middle;resizable=0;points=[];rounded=0;" parent="OxLEWKywHOv-19JCzwFs-221" vertex="1" connectable="0">
          <mxGeometry x="0.8499" y="-3" relative="1" as="geometry">
            <mxPoint x="-6" y="-4" as="offset" />
          </mxGeometry>
        </mxCell>
        <mxCell id="OxLEWKywHOv-19JCzwFs-255" value="REGION_CONTACT" style="swimlane;html=1;fontStyle=0;childLayout=stackLayout;horizontal=1;startSize=26;fillColor=#e0e0e0;horizontalStack=0;resizeParent=1;resizeLast=0;collapsible=1;marginBottom=0;swimlaneFillColor=#ffffff;align=center;rounded=0;shadow=0;comic=0;labelBackgroundColor=none;strokeWidth=1;fontFamily=Verdana;fontSize=14;" parent="1" vertex="1">
          <mxGeometry x="200" y="1373" width="180" height="134" as="geometry">
            <mxRectangle x="980" y="1480" width="100" height="30" as="alternateBounds" />
          </mxGeometry>
        </mxCell>
        <mxCell id="OxLEWKywHOv-19JCzwFs-256" value="ID_REGION_CONTACT" style="shape=partialRectangle;top=0;left=0;right=0;bottom=1;html=1;align=left;verticalAlign=middle;fillColor=none;spacingLeft=34;spacingRight=4;whiteSpace=wrap;overflow=hidden;rotatable=0;points=[[0,0.5],[1,0.5]];portConstraint=eastwest;dropTarget=0;fontStyle=5;rounded=0;" parent="OxLEWKywHOv-19JCzwFs-255" vertex="1">
          <mxGeometry y="26" width="180" height="30" as="geometry" />
        </mxCell>
        <mxCell id="OxLEWKywHOv-19JCzwFs-257" value="PK" style="shape=partialRectangle;top=0;left=0;bottom=0;html=1;fillColor=none;align=left;verticalAlign=middle;spacingLeft=4;spacingRight=4;whiteSpace=wrap;overflow=hidden;rotatable=0;points=[];portConstraint=eastwest;part=1;rounded=0;" parent="OxLEWKywHOv-19JCzwFs-256" vertex="1" connectable="0">
          <mxGeometry width="30" height="30" as="geometry" />
        </mxCell>
        <mxCell id="OxLEWKywHOv-19JCzwFs-258" value="libelle" style="shape=partialRectangle;top=0;left=0;right=0;bottom=0;html=1;align=left;verticalAlign=top;fillColor=none;spacingLeft=34;spacingRight=4;whiteSpace=wrap;overflow=hidden;rotatable=0;points=[[0,0.5],[1,0.5]];portConstraint=eastwest;dropTarget=0;rounded=0;" parent="OxLEWKywHOv-19JCzwFs-255" vertex="1">
          <mxGeometry y="56" width="180" height="26" as="geometry" />
        </mxCell>
        <mxCell id="OxLEWKywHOv-19JCzwFs-259" value="" style="shape=partialRectangle;top=0;left=0;bottom=0;html=1;fillColor=none;align=left;verticalAlign=top;spacingLeft=4;spacingRight=4;whiteSpace=wrap;overflow=hidden;rotatable=0;points=[];portConstraint=eastwest;part=1;rounded=0;" parent="OxLEWKywHOv-19JCzwFs-258" vertex="1" connectable="0">
          <mxGeometry width="30" height="26" as="geometry" />
        </mxCell>
        <mxCell id="OxLEWKywHOv-19JCzwFs-260" value="tele" style="shape=partialRectangle;top=0;left=0;right=0;bottom=0;html=1;align=left;verticalAlign=top;fillColor=none;spacingLeft=34;spacingRight=4;whiteSpace=wrap;overflow=hidden;rotatable=0;points=[[0,0.5],[1,0.5]];portConstraint=eastwest;dropTarget=0;rounded=0;" parent="OxLEWKywHOv-19JCzwFs-255" vertex="1">
          <mxGeometry y="82" width="180" height="26" as="geometry" />
        </mxCell>
        <mxCell id="OxLEWKywHOv-19JCzwFs-261" value="" style="shape=partialRectangle;top=0;left=0;bottom=0;html=1;fillColor=none;align=left;verticalAlign=top;spacingLeft=4;spacingRight=4;whiteSpace=wrap;overflow=hidden;rotatable=0;points=[];portConstraint=eastwest;part=1;rounded=0;" parent="OxLEWKywHOv-19JCzwFs-260" vertex="1" connectable="0">
          <mxGeometry width="30" height="26" as="geometry" />
        </mxCell>
        <mxCell id="OxLEWKywHOv-19JCzwFs-262" value="email" style="shape=partialRectangle;top=0;left=0;right=0;bottom=0;html=1;align=left;verticalAlign=top;fillColor=none;spacingLeft=34;spacingRight=4;whiteSpace=wrap;overflow=hidden;rotatable=0;points=[[0,0.5],[1,0.5]];portConstraint=eastwest;dropTarget=0;rounded=0;" parent="OxLEWKywHOv-19JCzwFs-255" vertex="1">
          <mxGeometry y="108" width="180" height="26" as="geometry" />
        </mxCell>
        <mxCell id="OxLEWKywHOv-19JCzwFs-263" value="" style="shape=partialRectangle;top=0;left=0;bottom=0;html=1;fillColor=none;align=left;verticalAlign=top;spacingLeft=4;spacingRight=4;whiteSpace=wrap;overflow=hidden;rotatable=0;points=[];portConstraint=eastwest;part=1;rounded=0;" parent="OxLEWKywHOv-19JCzwFs-262" vertex="1" connectable="0">
          <mxGeometry width="30" height="26" as="geometry" />
        </mxCell>
        <mxCell id="OxLEWKywHOv-19JCzwFs-266" value="" style="group;fontStyle=1;rounded=0;" parent="1" vertex="1" connectable="0">
          <mxGeometry x="800" y="1410" width="160" height="60" as="geometry" />
        </mxCell>
        <mxCell id="OxLEWKywHOv-19JCzwFs-267" value="avoir" style="swimlane;fontStyle=1;align=center;verticalAlign=middle;childLayout=stackLayout;horizontal=1;startSize=30;horizontalStack=0;resizeParent=0;resizeLast=1;container=0;collapsible=0;rounded=0;arcSize=30;swimlaneFillColor=#FFFFFF;dropTarget=0;fillColor=#CCCCCC;fontColor=#000000;" parent="OxLEWKywHOv-19JCzwFs-266" vertex="1">
          <mxGeometry width="160" height="60" as="geometry" />
        </mxCell>
        <mxCell id="01VOMUPUEz3-RHZkKi3b-15" value="structure_libelle" style="text;html=1;strokeColor=none;fillColor=none;align=center;verticalAlign=middle;whiteSpace=wrap;rounded=0;" parent="OxLEWKywHOv-19JCzwFs-266" vertex="1">
          <mxGeometry x="50" y="30" width="60" height="30" as="geometry" />
        </mxCell>
        <mxCell id="OxLEWKywHOv-19JCzwFs-327" style="edgeStyle=elbowEdgeStyle;rounded=0;orthogonalLoop=1;jettySize=auto;html=1;endArrow=none;endFill=0;" parent="1" source="OxLEWKywHOv-19JCzwFs-267" target="5KgQhFO7GnKElYih4QEI-105" edge="1">
          <mxGeometry relative="1" as="geometry">
            <Array as="points">
              <mxPoint x="1000" y="1500" />
            </Array>
          </mxGeometry>
        </mxCell>
        <mxCell id="OxLEWKywHOv-19JCzwFs-330" value="1,1" style="edgeLabel;html=1;align=center;verticalAlign=middle;resizable=0;points=[];rounded=0;" parent="OxLEWKywHOv-19JCzwFs-327" vertex="1" connectable="0">
          <mxGeometry x="0.6835" y="-1" relative="1" as="geometry">
            <mxPoint as="offset" />
          </mxGeometry>
        </mxCell>
        <mxCell id="OxLEWKywHOv-19JCzwFs-329" style="edgeStyle=orthogonalEdgeStyle;rounded=0;orthogonalLoop=1;jettySize=auto;html=1;endArrow=none;endFill=0;" parent="1" source="OxLEWKywHOv-19JCzwFs-267" target="OxLEWKywHOv-19JCzwFs-255" edge="1">
          <mxGeometry relative="1" as="geometry">
            <mxPoint x="500" y="1420" as="targetPoint" />
          </mxGeometry>
        </mxCell>
        <mxCell id="OxLEWKywHOv-19JCzwFs-331" value="1,n" style="edgeLabel;html=1;align=center;verticalAlign=middle;resizable=0;points=[];rounded=0;" parent="OxLEWKywHOv-19JCzwFs-329" vertex="1" connectable="0">
          <mxGeometry x="0.7292" y="-2" relative="1" as="geometry">
            <mxPoint x="-37" y="2" as="offset" />
          </mxGeometry>
        </mxCell>
        <mxCell id="XJ-SBI3OwPLti13eH-zW-7" style="edgeStyle=orthogonalEdgeStyle;rounded=0;orthogonalLoop=1;jettySize=auto;html=1;fontColor=#000000;endArrow=none;endFill=0;" edge="1" parent="1" source="01VOMUPUEz3-RHZkKi3b-3" target="XJ-SBI3OwPLti13eH-zW-4">
          <mxGeometry relative="1" as="geometry" />
        </mxCell>
        <mxCell id="01VOMUPUEz3-RHZkKi3b-3" value="PRES_TYPE" style="swimlane;html=1;fontStyle=0;childLayout=stackLayout;horizontal=1;startSize=26;fillColor=#e0e0e0;horizontalStack=0;resizeParent=1;resizeLast=0;collapsible=1;marginBottom=0;swimlaneFillColor=#ffffff;align=center;rounded=0;shadow=0;comic=0;labelBackgroundColor=none;strokeWidth=1;fontFamily=Verdana;fontSize=14;" parent="1" vertex="1">
          <mxGeometry x="240" y="719" width="160" height="81" as="geometry">
            <mxRectangle x="400" y="70" width="120" height="30" as="alternateBounds" />
          </mxGeometry>
        </mxCell>
        <mxCell id="01VOMUPUEz3-RHZkKi3b-4" value="ID_PRES_TYPE" style="shape=partialRectangle;top=0;left=0;right=0;bottom=1;html=1;align=left;verticalAlign=middle;fillColor=none;spacingLeft=34;spacingRight=4;whiteSpace=wrap;overflow=hidden;rotatable=0;points=[[0,0.5],[1,0.5]];portConstraint=eastwest;dropTarget=0;fontStyle=5;rounded=0;" parent="01VOMUPUEz3-RHZkKi3b-3" vertex="1">
          <mxGeometry y="26" width="160" height="30" as="geometry" />
        </mxCell>
        <mxCell id="01VOMUPUEz3-RHZkKi3b-5" value="PK" style="shape=partialRectangle;top=0;left=0;bottom=0;html=1;fillColor=none;align=left;verticalAlign=middle;spacingLeft=4;spacingRight=4;whiteSpace=wrap;overflow=hidden;rotatable=0;points=[];portConstraint=eastwest;part=1;rounded=0;" parent="01VOMUPUEz3-RHZkKi3b-4" vertex="1" connectable="0">
          <mxGeometry width="30" height="30" as="geometry" />
        </mxCell>
        <mxCell id="01VOMUPUEz3-RHZkKi3b-6" value="libelle" style="shape=partialRectangle;top=0;left=0;right=0;bottom=0;html=1;align=left;verticalAlign=top;fillColor=none;spacingLeft=34;spacingRight=4;whiteSpace=wrap;overflow=hidden;rotatable=0;points=[[0,0.5],[1,0.5]];portConstraint=eastwest;dropTarget=0;rounded=0;" parent="01VOMUPUEz3-RHZkKi3b-3" vertex="1">
          <mxGeometry y="56" width="160" height="24" as="geometry" />
        </mxCell>
        <mxCell id="01VOMUPUEz3-RHZkKi3b-7" value="" style="shape=partialRectangle;top=0;left=0;bottom=0;html=1;fillColor=none;align=left;verticalAlign=top;spacingLeft=4;spacingRight=4;whiteSpace=wrap;overflow=hidden;rotatable=0;points=[];portConstraint=eastwest;part=1;rounded=0;" parent="01VOMUPUEz3-RHZkKi3b-6" vertex="1" connectable="0">
          <mxGeometry width="30" height="24" as="geometry" />
        </mxCell>
        <mxCell id="01VOMUPUEz3-RHZkKi3b-8" value="" style="group;fontStyle=1;rounded=0;" parent="1" vertex="1" connectable="0">
          <mxGeometry x="490" y="730" width="160" height="60" as="geometry" />
        </mxCell>
        <mxCell id="01VOMUPUEz3-RHZkKi3b-9" value="appartient à" style="swimlane;fontStyle=1;align=center;verticalAlign=middle;childLayout=stackLayout;horizontal=1;startSize=30;horizontalStack=0;resizeParent=0;resizeLast=1;container=0;collapsible=0;rounded=0;arcSize=30;swimlaneFillColor=#FFFFFF;dropTarget=0;fillColor=#CCCCCC;fontColor=#000000;" parent="01VOMUPUEz3-RHZkKi3b-8" vertex="1">
          <mxGeometry width="160" height="60" as="geometry" />
        </mxCell>
        <mxCell id="01VOMUPUEz3-RHZkKi3b-14" value="cat_type_presetation" style="text;html=1;strokeColor=none;fillColor=none;align=center;verticalAlign=middle;whiteSpace=wrap;rounded=0;" parent="01VOMUPUEz3-RHZkKi3b-8" vertex="1">
          <mxGeometry x="50" y="30" width="60" height="30" as="geometry" />
        </mxCell>
        <mxCell id="01VOMUPUEz3-RHZkKi3b-10" style="edgeStyle=orthogonalEdgeStyle;rounded=0;orthogonalLoop=1;jettySize=auto;html=1;endArrow=none;endFill=0;" parent="1" source="01VOMUPUEz3-RHZkKi3b-4" target="01VOMUPUEz3-RHZkKi3b-9" edge="1">
          <mxGeometry relative="1" as="geometry" />
        </mxCell>
        <mxCell id="01VOMUPUEz3-RHZkKi3b-12" value="1,n" style="edgeLabel;html=1;align=center;verticalAlign=middle;resizable=0;points=[];rounded=0;" parent="01VOMUPUEz3-RHZkKi3b-10" vertex="1" connectable="0">
          <mxGeometry x="-0.6603" y="4" relative="1" as="geometry">
            <mxPoint x="5" y="4" as="offset" />
          </mxGeometry>
        </mxCell>
        <mxCell id="01VOMUPUEz3-RHZkKi3b-11" style="edgeStyle=orthogonalEdgeStyle;rounded=0;orthogonalLoop=1;jettySize=auto;html=1;endArrow=none;endFill=0;" parent="1" source="01VOMUPUEz3-RHZkKi3b-9" target="OxLEWKywHOv-19JCzwFs-53" edge="1">
          <mxGeometry relative="1" as="geometry" />
        </mxCell>
        <mxCell id="01VOMUPUEz3-RHZkKi3b-13" value="1,n" style="edgeLabel;html=1;align=center;verticalAlign=middle;resizable=0;points=[];rounded=0;" parent="01VOMUPUEz3-RHZkKi3b-11" vertex="1" connectable="0">
          <mxGeometry x="0.3107" y="-2" relative="1" as="geometry">
            <mxPoint y="-2" as="offset" />
          </mxGeometry>
        </mxCell>
        <mxCell id="01VOMUPUEz3-RHZkKi3b-17" style="edgeStyle=orthogonalEdgeStyle;rounded=0;orthogonalLoop=1;jettySize=auto;html=1;fontColor=#FF3333;endArrow=none;endFill=0;" parent="1" source="OxLEWKywHOv-19JCzwFs-122" target="OxLEWKywHOv-19JCzwFs-114" edge="1">
          <mxGeometry relative="1" as="geometry" />
        </mxCell>
        <mxCell id="01VOMUPUEz3-RHZkKi3b-40" value="1,n" style="edgeLabel;html=1;align=center;verticalAlign=middle;resizable=0;points=[];fontColor=#000000;rounded=0;" parent="01VOMUPUEz3-RHZkKi3b-17" vertex="1" connectable="0">
          <mxGeometry x="0.7453" y="2" relative="1" as="geometry">
            <mxPoint y="-12" as="offset" />
          </mxGeometry>
        </mxCell>
        <mxCell id="01VOMUPUEz3-RHZkKi3b-18" style="edgeStyle=orthogonalEdgeStyle;rounded=0;orthogonalLoop=1;jettySize=auto;html=1;fontColor=#FF3333;endArrow=none;endFill=0;jumpStyle=arc;" parent="1" edge="1">
          <mxGeometry relative="1" as="geometry">
            <mxPoint x="781" y="1140" as="sourcePoint" />
            <mxPoint x="1201" y="1680" as="targetPoint" />
            <Array as="points">
              <mxPoint x="781" y="1380" />
              <mxPoint x="1151" y="1380" />
              <mxPoint x="1151" y="1680" />
            </Array>
          </mxGeometry>
        </mxCell>
        <mxCell id="01VOMUPUEz3-RHZkKi3b-39" value="1,1" style="edgeLabel;html=1;align=center;verticalAlign=middle;resizable=0;points=[];fontColor=#000000;rounded=0;" parent="01VOMUPUEz3-RHZkKi3b-18" vertex="1" connectable="0">
          <mxGeometry x="-0.9689" y="-5" relative="1" as="geometry">
            <mxPoint as="offset" />
          </mxGeometry>
        </mxCell>
        <mxCell id="01VOMUPUEz3-RHZkKi3b-21" value="" style="group;fontStyle=1;rounded=0;" parent="1" vertex="1" connectable="0">
          <mxGeometry x="1600" y="1166" width="160" height="60" as="geometry" />
        </mxCell>
        <mxCell id="01VOMUPUEz3-RHZkKi3b-22" value="demander" style="swimlane;fontStyle=1;align=center;verticalAlign=middle;childLayout=stackLayout;horizontal=1;startSize=30;horizontalStack=0;resizeParent=0;resizeLast=1;container=0;collapsible=0;rounded=0;arcSize=30;swimlaneFillColor=#FFFFFF;dropTarget=0;fillColor=#CCCCCC;fontColor=#000000;" parent="01VOMUPUEz3-RHZkKi3b-21" vertex="1">
          <mxGeometry width="160" height="60" as="geometry" />
        </mxCell>
        <mxCell id="01VOMUPUEz3-RHZkKi3b-25" style="edgeStyle=orthogonalEdgeStyle;rounded=0;orthogonalLoop=1;jettySize=auto;html=1;entryX=0.5;entryY=0;entryDx=0;entryDy=0;fontColor=#000000;endArrow=none;endFill=0;" parent="1" source="01VOMUPUEz3-RHZkKi3b-22" target="OxLEWKywHOv-19JCzwFs-129" edge="1">
          <mxGeometry relative="1" as="geometry">
            <Array as="points">
              <mxPoint x="1730" y="1320" />
              <mxPoint x="1730" y="1320" />
            </Array>
          </mxGeometry>
        </mxCell>
        <mxCell id="01VOMUPUEz3-RHZkKi3b-26" value="0,n" style="edgeLabel;html=1;align=center;verticalAlign=middle;resizable=0;points=[];fontColor=#000000;rounded=0;" parent="01VOMUPUEz3-RHZkKi3b-25" vertex="1" connectable="0">
          <mxGeometry x="0.8765" y="-2" relative="1" as="geometry">
            <mxPoint x="2" y="13" as="offset" />
          </mxGeometry>
        </mxCell>
        <mxCell id="01VOMUPUEz3-RHZkKi3b-31" value="" style="group;fontStyle=1;rounded=0;" parent="1" vertex="1" connectable="0">
          <mxGeometry x="1240" y="1313" width="160" height="60" as="geometry" />
        </mxCell>
        <mxCell id="01VOMUPUEz3-RHZkKi3b-32" value="demander" style="swimlane;fontStyle=1;align=center;verticalAlign=middle;childLayout=stackLayout;horizontal=1;startSize=30;horizontalStack=0;resizeParent=0;resizeLast=1;container=0;collapsible=0;rounded=0;arcSize=30;swimlaneFillColor=#FFFFFF;dropTarget=0;fillColor=#CCCCCC;fontColor=#000000;" parent="01VOMUPUEz3-RHZkKi3b-31" vertex="1">
          <mxGeometry width="160" height="60" as="geometry" />
        </mxCell>
        <mxCell id="01VOMUPUEz3-RHZkKi3b-35" style="edgeStyle=orthogonalEdgeStyle;rounded=0;orthogonalLoop=1;jettySize=auto;html=1;fontColor=#000000;endArrow=none;endFill=0;" parent="1" source="01VOMUPUEz3-RHZkKi3b-32" target="5KgQhFO7GnKElYih4QEI-82" edge="1">
          <mxGeometry relative="1" as="geometry">
            <Array as="points">
              <mxPoint x="860" y="1343" />
            </Array>
          </mxGeometry>
        </mxCell>
        <mxCell id="01VOMUPUEz3-RHZkKi3b-38" value="1,1" style="edgeLabel;html=1;align=center;verticalAlign=middle;resizable=0;points=[];fontColor=#000000;rounded=0;" parent="01VOMUPUEz3-RHZkKi3b-35" vertex="1" connectable="0">
          <mxGeometry x="0.956" y="1" relative="1" as="geometry">
            <mxPoint as="offset" />
          </mxGeometry>
        </mxCell>
        <mxCell id="01VOMUPUEz3-RHZkKi3b-36" style="edgeStyle=orthogonalEdgeStyle;rounded=0;orthogonalLoop=1;jettySize=auto;html=1;entryX=0.25;entryY=0;entryDx=0;entryDy=0;fontColor=#000000;endArrow=none;endFill=0;" parent="1" source="01VOMUPUEz3-RHZkKi3b-32" target="OxLEWKywHOv-19JCzwFs-129" edge="1">
          <mxGeometry relative="1" as="geometry" />
        </mxCell>
        <mxCell id="01VOMUPUEz3-RHZkKi3b-37" value="0,n" style="edgeLabel;html=1;align=center;verticalAlign=middle;resizable=0;points=[];fontColor=#000000;rounded=0;" parent="01VOMUPUEz3-RHZkKi3b-36" vertex="1" connectable="0">
          <mxGeometry x="0.917" y="-4" relative="1" as="geometry">
            <mxPoint x="4" y="13" as="offset" />
          </mxGeometry>
        </mxCell>
        <mxCell id="XJ-SBI3OwPLti13eH-zW-3" value="" style="group;fontStyle=1;rounded=0;" vertex="1" connectable="0" parent="1">
          <mxGeometry x="167" y="880" width="160" height="60" as="geometry" />
        </mxCell>
        <mxCell id="XJ-SBI3OwPLti13eH-zW-4" value="classee en" style="swimlane;fontStyle=1;align=center;verticalAlign=middle;childLayout=stackLayout;horizontal=1;startSize=30;horizontalStack=0;resizeParent=0;resizeLast=1;container=0;collapsible=0;rounded=0;arcSize=30;swimlaneFillColor=#FFFFFF;dropTarget=0;fillColor=#CCCCCC;fontColor=#000000;" vertex="1" parent="XJ-SBI3OwPLti13eH-zW-3">
          <mxGeometry width="160" height="60" as="geometry" />
        </mxCell>
        <mxCell id="XJ-SBI3OwPLti13eH-zW-9" style="edgeStyle=orthogonalEdgeStyle;rounded=0;orthogonalLoop=1;jettySize=auto;html=1;fontColor=#000000;endArrow=none;endFill=0;" edge="1" parent="1" source="XJ-SBI3OwPLti13eH-zW-4" target="OxLEWKywHOv-19JCzwFs-69">
          <mxGeometry relative="1" as="geometry">
            <mxPoint x="230" y="960" as="sourcePoint" />
            <Array as="points">
              <mxPoint x="240" y="980" />
              <mxPoint x="239" y="980" />
            </Array>
          </mxGeometry>
        </mxCell>
        <mxCell id="XJ-SBI3OwPLti13eH-zW-10" value="1,n" style="edgeLabel;html=1;align=center;verticalAlign=middle;resizable=0;points=[];rounded=0;" vertex="1" connectable="0" parent="1">
          <mxGeometry x="239" y="1005" as="geometry" />
        </mxCell>
        <mxCell id="XJ-SBI3OwPLti13eH-zW-11" value="1,1" style="edgeLabel;html=1;align=center;verticalAlign=middle;resizable=0;points=[];fontColor=#000000;rounded=0;" vertex="1" connectable="0" parent="1">
          <mxGeometry x="720" y="1110" as="geometry">
            <mxPoint x="-400" y="-294" as="offset" />
          </mxGeometry>
        </mxCell>
        <mxCell id="XJ-SBI3OwPLti13eH-zW-12" value="" style="group;fontStyle=1;rounded=0;" vertex="1" connectable="0" parent="1">
          <mxGeometry x="1650" y="1842" width="160" height="60" as="geometry" />
        </mxCell>
        <mxCell id="XJ-SBI3OwPLti13eH-zW-13" value="demande par" style="swimlane;fontStyle=1;align=center;verticalAlign=middle;childLayout=stackLayout;horizontal=1;startSize=30;horizontalStack=0;resizeParent=0;resizeLast=1;container=0;collapsible=0;rounded=0;arcSize=30;swimlaneFillColor=#FFFFFF;dropTarget=0;fillColor=#CCCCCC;fontColor=#000000;" vertex="1" parent="XJ-SBI3OwPLti13eH-zW-12">
          <mxGeometry width="160" height="60" as="geometry" />
        </mxCell>
        <mxCell id="XJ-SBI3OwPLti13eH-zW-15" style="edgeStyle=orthogonalEdgeStyle;rounded=0;orthogonalLoop=1;jettySize=auto;html=1;fontColor=#000000;endArrow=none;endFill=0;" edge="1" parent="1" source="XJ-SBI3OwPLti13eH-zW-13" target="5KgQhFO7GnKElYih4QEI-52">
          <mxGeometry relative="1" as="geometry">
            <Array as="points">
              <mxPoint x="1590" y="1872" />
              <mxPoint x="1590" y="1872" />
            </Array>
          </mxGeometry>
        </mxCell>
        <mxCell id="XJ-SBI3OwPLti13eH-zW-17" value="0,1" style="edgeLabel;html=1;align=center;verticalAlign=middle;resizable=0;points=[];fontColor=#000000;rounded=0;" vertex="1" connectable="0" parent="XJ-SBI3OwPLti13eH-zW-15">
          <mxGeometry x="0.9" y="2" relative="1" as="geometry">
            <mxPoint x="2" y="-3" as="offset" />
          </mxGeometry>
        </mxCell>
        <mxCell id="XJ-SBI3OwPLti13eH-zW-16" style="edgeStyle=orthogonalEdgeStyle;rounded=0;orthogonalLoop=1;jettySize=auto;html=1;fontColor=#000000;endArrow=none;endFill=0;" edge="1" parent="1" source="XJ-SBI3OwPLti13eH-zW-13" target="OxLEWKywHOv-19JCzwFs-129">
          <mxGeometry relative="1" as="geometry" />
        </mxCell>
        <mxCell id="XJ-SBI3OwPLti13eH-zW-18" value="0,n" style="edgeLabel;html=1;align=center;verticalAlign=middle;resizable=0;points=[];fontColor=#000000;rounded=0;" vertex="1" connectable="0" parent="XJ-SBI3OwPLti13eH-zW-16">
          <mxGeometry x="0.748" y="2" relative="1" as="geometry">
            <mxPoint as="offset" />
          </mxGeometry>
        </mxCell>
        <mxCell id="XJ-SBI3OwPLti13eH-zW-22" value="DEMANDEUR" style="swimlane;html=1;fontStyle=0;childLayout=stackLayout;horizontal=1;startSize=26;fillColor=#e0e0e0;horizontalStack=0;resizeParent=1;resizeLast=0;collapsible=1;marginBottom=0;swimlaneFillColor=#ffffff;align=center;rounded=0;shadow=0;comic=0;labelBackgroundColor=none;strokeWidth=1;fontFamily=Verdana;fontSize=14;" vertex="1" parent="1">
          <mxGeometry x="1355" y="750" width="160" height="82" as="geometry">
            <mxRectangle x="180" y="180" width="120" height="30" as="alternateBounds" />
          </mxGeometry>
        </mxCell>
        <mxCell id="XJ-SBI3OwPLti13eH-zW-23" value="ID_DEMANDEUR" style="shape=partialRectangle;top=0;left=0;right=0;bottom=1;html=1;align=left;verticalAlign=middle;fillColor=none;spacingLeft=34;spacingRight=4;whiteSpace=wrap;overflow=hidden;rotatable=0;points=[[0,0.5],[1,0.5]];portConstraint=eastwest;dropTarget=0;fontStyle=5;rounded=0;" vertex="1" parent="XJ-SBI3OwPLti13eH-zW-22">
          <mxGeometry y="26" width="160" height="30" as="geometry" />
        </mxCell>
        <mxCell id="XJ-SBI3OwPLti13eH-zW-24" value="PK" style="shape=partialRectangle;top=0;left=0;bottom=0;html=1;fillColor=none;align=left;verticalAlign=middle;spacingLeft=4;spacingRight=4;whiteSpace=wrap;overflow=hidden;rotatable=0;points=[];portConstraint=eastwest;part=1;rounded=0;" vertex="1" connectable="0" parent="XJ-SBI3OwPLti13eH-zW-23">
          <mxGeometry width="30" height="30" as="geometry" />
        </mxCell>
        <mxCell id="XJ-SBI3OwPLti13eH-zW-29" value="SON" style="shape=partialRectangle;top=0;left=0;right=0;bottom=0;html=1;align=left;verticalAlign=top;fillColor=none;spacingLeft=34;spacingRight=4;whiteSpace=wrap;overflow=hidden;rotatable=0;points=[[0,0.5],[1,0.5]];portConstraint=eastwest;dropTarget=0;rounded=0;" vertex="1" parent="XJ-SBI3OwPLti13eH-zW-22">
          <mxGeometry y="56" width="160" height="26" as="geometry" />
        </mxCell>
        <mxCell id="XJ-SBI3OwPLti13eH-zW-30" value="" style="shape=partialRectangle;top=0;left=0;bottom=0;html=1;fillColor=none;align=left;verticalAlign=top;spacingLeft=4;spacingRight=4;whiteSpace=wrap;overflow=hidden;rotatable=0;points=[];portConstraint=eastwest;part=1;rounded=0;" vertex="1" connectable="0" parent="XJ-SBI3OwPLti13eH-zW-29">
          <mxGeometry width="30" height="26" as="geometry" />
        </mxCell>
        <mxCell id="XJ-SBI3OwPLti13eH-zW-42" style="edgeStyle=orthogonalEdgeStyle;rounded=0;jumpStyle=arc;orthogonalLoop=1;jettySize=auto;html=1;exitX=1;exitY=0.5;exitDx=0;exitDy=0;entryX=1;entryY=0.5;entryDx=0;entryDy=0;shadow=0;strokeColor=default;fontColor=#000000;endArrow=none;endFill=0;" edge="1" parent="1" source="2e49270ec7c68f3f-83" target="XJ-SBI3OwPLti13eH-zW-13">
          <mxGeometry relative="1" as="geometry">
            <Array as="points">
              <mxPoint x="1930" y="537" />
              <mxPoint x="1930" y="1872" />
            </Array>
          </mxGeometry>
        </mxCell>
        <mxCell id="XJ-SBI3OwPLti13eH-zW-43" value="1,2" style="edgeLabel;html=1;align=center;verticalAlign=middle;resizable=0;points=[];fontColor=#000000;rounded=0;" vertex="1" connectable="0" parent="1">
          <mxGeometry x="1255.0033333333336" y="535" as="geometry" />
        </mxCell>
        <mxCell id="XJ-SBI3OwPLti13eH-zW-44" value="" style="group;fontStyle=1;rounded=0;" vertex="1" connectable="0" parent="1">
          <mxGeometry x="1225" y="1980" width="160" height="60" as="geometry" />
        </mxCell>
        <mxCell id="XJ-SBI3OwPLti13eH-zW-45" value="appartient à" style="swimlane;fontStyle=1;align=center;verticalAlign=middle;childLayout=stackLayout;horizontal=1;startSize=30;horizontalStack=0;resizeParent=0;resizeLast=1;container=0;collapsible=0;rounded=0;arcSize=30;swimlaneFillColor=#FFFFFF;dropTarget=0;fillColor=#CCCCCC;fontColor=#000000;" vertex="1" parent="XJ-SBI3OwPLti13eH-zW-44">
          <mxGeometry width="160" height="60" as="geometry" />
        </mxCell>
        <mxCell id="XJ-SBI3OwPLti13eH-zW-49" style="edgeStyle=orthogonalEdgeStyle;rounded=0;jumpStyle=arc;orthogonalLoop=1;jettySize=auto;html=1;entryX=1;entryY=0.5;entryDx=0;entryDy=0;shadow=0;strokeColor=default;fontColor=#000000;endArrow=none;endFill=0;" edge="1" parent="1" source="XJ-SBI3OwPLti13eH-zW-45" target="2e49270ec7c68f3f-81">
          <mxGeometry relative="1" as="geometry">
            <Array as="points">
              <mxPoint x="2030" y="2010" />
              <mxPoint x="2030" y="509" />
            </Array>
          </mxGeometry>
        </mxCell>
        <mxCell id="XJ-SBI3OwPLti13eH-zW-50" value="1,1" style="edgeLabel;html=1;align=center;verticalAlign=middle;resizable=0;points=[];fontColor=#000000;rounded=0;" vertex="1" connectable="0" parent="XJ-SBI3OwPLti13eH-zW-49">
          <mxGeometry x="0.9894" y="2" relative="1" as="geometry">
            <mxPoint x="-1" y="-6" as="offset" />
          </mxGeometry>
        </mxCell>
        <mxCell id="XJ-SBI3OwPLti13eH-zW-52" value="" style="group;fontStyle=1;rounded=0;" vertex="1" connectable="0" parent="1">
          <mxGeometry x="463" y="885" width="180" height="61" as="geometry" />
        </mxCell>
        <mxCell id="XJ-SBI3OwPLti13eH-zW-53" value="plafondement montant" style="swimlane;fontStyle=1;align=center;verticalAlign=middle;childLayout=stackLayout;horizontal=1;startSize=30;horizontalStack=0;resizeParent=0;resizeLast=1;container=0;collapsible=0;rounded=0;arcSize=30;swimlaneFillColor=#FFFFFF;dropTarget=0;fillColor=#CCCCCC;fontColor=#000000;" vertex="1" parent="XJ-SBI3OwPLti13eH-zW-52">
          <mxGeometry width="180" height="60" as="geometry" />
        </mxCell>
        <mxCell id="XJ-SBI3OwPLti13eH-zW-54" value="plafondement_montant" style="text;html=1;strokeColor=none;fillColor=none;align=center;verticalAlign=middle;whiteSpace=wrap;rounded=0;fontColor=#000000;" vertex="1" parent="XJ-SBI3OwPLti13eH-zW-52">
          <mxGeometry x="15" y="31" width="150" height="30" as="geometry" />
        </mxCell>
        <mxCell id="XJ-SBI3OwPLti13eH-zW-55" style="edgeStyle=orthogonalEdgeStyle;rounded=0;jumpStyle=arc;orthogonalLoop=1;jettySize=auto;html=1;entryX=1;entryY=0.25;entryDx=0;entryDy=0;shadow=0;strokeColor=default;fontColor=#000000;endArrow=none;endFill=0;" edge="1" parent="1" source="XJ-SBI3OwPLti13eH-zW-53" target="OxLEWKywHOv-19JCzwFs-69">
          <mxGeometry relative="1" as="geometry" />
        </mxCell>
        <mxCell id="XJ-SBI3OwPLti13eH-zW-57" value="1,1" style="edgeLabel;html=1;align=center;verticalAlign=middle;resizable=0;points=[];fontColor=#000000;rounded=0;" vertex="1" connectable="0" parent="XJ-SBI3OwPLti13eH-zW-55">
          <mxGeometry x="0.8368" y="2" relative="1" as="geometry">
            <mxPoint x="3" y="-3" as="offset" />
          </mxGeometry>
        </mxCell>
        <mxCell id="XJ-SBI3OwPLti13eH-zW-56" style="edgeStyle=orthogonalEdgeStyle;rounded=0;jumpStyle=arc;orthogonalLoop=1;jettySize=auto;html=1;entryX=0.268;entryY=1.042;entryDx=0;entryDy=0;entryPerimeter=0;shadow=0;strokeColor=default;fontColor=#000000;endArrow=none;endFill=0;" edge="1" parent="1" source="XJ-SBI3OwPLti13eH-zW-53" target="OxLEWKywHOv-19JCzwFs-55">
          <mxGeometry relative="1" as="geometry" />
        </mxCell>
        <mxCell id="XJ-SBI3OwPLti13eH-zW-58" value="1,n" style="edgeLabel;html=1;align=center;verticalAlign=middle;resizable=0;points=[];fontColor=#000000;rounded=0;" vertex="1" connectable="0" parent="XJ-SBI3OwPLti13eH-zW-56">
          <mxGeometry x="0.9245" y="-1" relative="1" as="geometry">
            <mxPoint as="offset" />
          </mxGeometry>
        </mxCell>
      </root>
    </mxGraphModel>
  </diagram>
</mxfile>
